<?xml version="1.0" encoding="UTF-8" standalone="no"?>
<!DOCTYPE svg PUBLIC "-//W3C//DTD SVG 1.1//EN"
 "http://www.w3.org/Graphics/SVG/1.1/DTD/svg11.dtd">
<!-- Generated by graphviz version 2.38.0 (20140413.2041)
 -->
<!-- Title: G Pages: 1 -->
<svg width="520pt" height="627pt"
 viewBox="0.00 0.00 520.00 627.00" xmlns="http://www.w3.org/2000/svg" xmlns:xlink="http://www.w3.org/1999/xlink">
<g id="graph0" class="graph" transform="scale(1 1) rotate(0) translate(4 623)">
<title>G</title>
<polygon fill="white" stroke="none" points="-4,4 -4,-623 516,-623 516,4 -4,4"/>
<g id="clust4" class="cluster"><title>cluster</title>
<path fill="none" stroke="black" d="M20,-8C20,-8 492,-8 492,-8 498,-8 504,-14 504,-20 504,-20 504,-599 504,-599 504,-605 498,-611 492,-611 492,-611 20,-611 20,-611 14,-611 8,-605 8,-599 8,-599 8,-20 8,-20 8,-14 14,-8 20,-8"/>
<text text-anchor="middle" x="256" y="-595.8" font-family="Times,serif" font-size="14.00">/</text>
</g>
<g id="clust5" class="cluster"><title>cluster_home</title>
<path fill="none" stroke="black" d="M156,-116C156,-116 484,-116 484,-116 490,-116 496,-122 496,-128 496,-128 496,-545 496,-545 496,-551 490,-557 484,-557 484,-557 156,-557 156,-557 150,-557 144,-551 144,-545 144,-545 144,-128 144,-128 144,-122 150,-116 156,-116"/>
<text text-anchor="middle" x="320" y="-541.8" font-family="Times,serif" font-size="14.00">home</text>
</g>
<g id="clust6" class="cluster"><title>cluster_home_s10421</title>
<path fill="none" stroke="black" d="M319,-145C319,-145 381,-145 381,-145 387,-145 393,-151 393,-157 393,-157 393,-247 393,-247 393,-253 387,-259 381,-259 381,-259 319,-259 319,-259 313,-259 307,-253 307,-247 307,-247 307,-157 307,-157 307,-151 313,-145 319,-145"/>
<text text-anchor="middle" x="350" y="-243.8" font-family="Times,serif" font-size="14.00">s10421</text>
</g>
<g id="clust7" class="cluster"><title>cluster_home_s10421_www</title>
<path fill="none" stroke="black" d="M327,-153C327,-153 373,-153 373,-153 379,-153 385,-159 385,-165 385,-165 385,-216 385,-216 385,-222 379,-228 373,-228 373,-228 327,-228 327,-228 321,-228 315,-222 315,-216 315,-216 315,-165 315,-165 315,-159 321,-153 327,-153"/>
<text text-anchor="middle" x="350" y="-212.8" font-family="Times,serif" font-size="14.00">www</text>
</g>
<g id="clust8" class="cluster"><title>cluster_home_s10423</title>
<path fill="none" stroke="black" d="M319,-389C319,-389 381,-389 381,-389 387,-389 393,-395 393,-401 393,-401 393,-491 393,-491 393,-497 387,-503 381,-503 381,-503 319,-503 319,-503 313,-503 307,-497 307,-491 307,-491 307,-401 307,-401 307,-395 313,-389 319,-389"/>
<text text-anchor="middle" x="350" y="-487.8" font-family="Times,serif" font-size="14.00">s10423</text>
</g>
<g id="clust9" class="cluster"><title>cluster_home_s10423_www</title>
<path fill="none" stroke="black" d="M327,-397C327,-397 373,-397 373,-397 379,-397 385,-403 385,-409 385,-409 385,-460 385,-460 385,-466 379,-472 373,-472 373,-472 327,-472 327,-472 321,-472 315,-466 315,-460 315,-460 315,-409 315,-409 315,-403 321,-397 327,-397"/>
<text text-anchor="middle" x="350" y="-456.8" font-family="Times,serif" font-size="14.00">www</text>
</g>
<g id="clust10" class="cluster"><title>cluster_home_s10425</title>
<path fill="none" stroke="black" d="M414,-257C414,-257 476,-257 476,-257 482,-257 488,-263 488,-269 488,-269 488,-359 488,-359 488,-365 482,-371 476,-371 476,-371 414,-371 414,-371 408,-371 402,-365 402,-359 402,-359 402,-269 402,-269 402,-263 408,-257 414,-257"/>
<text text-anchor="middle" x="445" y="-355.8" font-family="Times,serif" font-size="14.00">s10425</text>
</g>
<g id="clust11" class="cluster"><title>cluster_home_s10425_www</title>
<path fill="none" stroke="black" d="M422,-265C422,-265 468,-265 468,-265 474,-265 480,-271 480,-277 480,-277 480,-328 480,-328 480,-334 474,-340 468,-340 468,-340 422,-340 422,-340 416,-340 410,-334 410,-328 410,-328 410,-277 410,-277 410,-271 416,-265 422,-265"/>
<text text-anchor="middle" x="445" y="-324.8" font-family="Times,serif" font-size="14.00">www</text>
</g>
<g id="clust12" class="cluster"><title>cluster_home_ckhung</title>
<path fill="none" stroke="black" d="M164,-124C164,-124 286,-124 286,-124 292,-124 298,-130 298,-136 298,-136 298,-514 298,-514 298,-520 292,-526 286,-526 286,-526 164,-526 164,-526 158,-526 152,-520 152,-514 152,-514 152,-136 152,-136 152,-130 158,-124 164,-124"/>
<text text-anchor="middle" x="225" y="-510.8" font-family="Times,serif" font-size="14.00">ckhung</text>
</g>
<g id="clust13" class="cluster"><title>cluster_home_ckhung_www</title>
<path fill="none" stroke="black" d="M172,-132C172,-132 278,-132 278,-132 284,-132 290,-138 290,-144 290,-144 290,-483 290,-483 290,-489 284,-495 278,-495 278,-495 172,-495 172,-495 166,-495 160,-489 160,-483 160,-483 160,-144 160,-144 160,-138 166,-132 172,-132"/>
<text text-anchor="middle" x="225" y="-479.8" font-family="Times,serif" font-size="14.00">www</text>
</g>
<g id="clust14" class="cluster"><title>cluster_home_ckhung_www_b</title>
<path fill="none" stroke="black" d="M180,-184C180,-184 270,-184 270,-184 276,-184 282,-190 282,-196 282,-196 282,-452 282,-452 282,-458 276,-464 270,-464 270,-464 180,-464 180,-464 174,-464 168,-458 168,-452 168,-452 168,-196 168,-196 168,-190 174,-184 180,-184"/>
<text text-anchor="middle" x="225" y="-448.8" font-family="Times,serif" font-size="14.00">b</text>
</g>
<g id="clust15" class="cluster"><title>cluster_home_ckhung_www_b_js</title>
<path fill="none" stroke="black" d="M188,-358C188,-358 262,-358 262,-358 268,-358 274,-364 274,-370 274,-370 274,-421 274,-421 274,-427 268,-433 262,-433 262,-433 188,-433 188,-433 182,-433 176,-427 176,-421 176,-421 176,-370 176,-370 176,-364 182,-358 188,-358"/>
<text text-anchor="middle" x="225" y="-417.8" font-family="Times,serif" font-size="14.00">js</text>
</g>
<g id="clust16" class="cluster"><title>cluster_home_ckhung_www_b_re</title>
<path fill="none" stroke="black" d="M196,-275C196,-275 254,-275 254,-275 260,-275 266,-281 266,-287 266,-287 266,-338 266,-338 266,-344 260,-350 254,-350 254,-350 196,-350 196,-350 190,-350 184,-344 184,-338 184,-338 184,-287 184,-287 184,-281 190,-275 196,-275"/>
<text text-anchor="middle" x="225" y="-334.8" font-family="Times,serif" font-size="14.00">re</text>
</g>
<g id="clust17" class="cluster"><title>cluster_home_ckhung_www_b_pl</title>
<path fill="none" stroke="black" d="M192.5,-192C192.5,-192 257.5,-192 257.5,-192 263.5,-192 269.5,-198 269.5,-204 269.5,-204 269.5,-255 269.5,-255 269.5,-261 263.5,-267 257.5,-267 257.5,-267 192.5,-267 192.5,-267 186.5,-267 180.5,-261 180.5,-255 180.5,-255 180.5,-204 180.5,-204 180.5,-198 186.5,-192 192.5,-192"/>
<text text-anchor="middle" x="225" y="-251.8" font-family="Times,serif" font-size="14.00">pl</text>
</g>
<g id="clust18" class="cluster"><title>cluster_home_s10422</title>
<path fill="none" stroke="black" d="M318,-267C318,-267 382,-267 382,-267 388,-267 394,-273 394,-279 394,-279 394,-369 394,-369 394,-375 388,-381 382,-381 382,-381 318,-381 318,-381 312,-381 306,-375 306,-369 306,-369 306,-279 306,-279 306,-273 312,-267 318,-267"/>
<text text-anchor="middle" x="350" y="-365.8" font-family="Times,serif" font-size="14.00">s10422</text>
</g>
<g id="clust19" class="cluster"><title>cluster_home_s10422_www</title>
<path fill="none" stroke="black" d="M326,-275C326,-275 374,-275 374,-275 380,-275 386,-281 386,-287 386,-287 386,-338 386,-338 386,-344 380,-350 374,-350 374,-350 326,-350 326,-350 320,-350 314,-344 314,-338 314,-338 314,-287 314,-287 314,-281 320,-275 326,-275"/>
<text text-anchor="middle" x="350" y="-334.8" font-family="Times,serif" font-size="14.00">www</text>
</g>
<g id="clust20" class="cluster"><title>cluster_home_s10424</title>
<path fill="none" stroke="black" d="M414,-135C414,-135 476,-135 476,-135 482,-135 488,-141 488,-147 488,-147 488,-237 488,-237 488,-243 482,-249 476,-249 476,-249 414,-249 414,-249 408,-249 402,-243 402,-237 402,-237 402,-147 402,-147 402,-141 408,-135 414,-135"/>
<text text-anchor="middle" x="445" y="-233.8" font-family="Times,serif" font-size="14.00">s10424</text>
</g>
<g id="clust21" class="cluster"><title>cluster_home_s10424_www</title>
<path fill="none" stroke="black" d="M422,-143C422,-143 468,-143 468,-143 474,-143 480,-149 480,-155 480,-155 480,-206 480,-206 480,-212 474,-218 468,-218 468,-218 422,-218 422,-218 416,-218 410,-212 410,-206 410,-206 410,-155 410,-155 410,-149 416,-143 422,-143"/>
<text text-anchor="middle" x="445" y="-202.8" font-family="Times,serif" font-size="14.00">www</text>
</g>
<g id="clust22" class="cluster"><title>cluster_etc</title>
<path fill="none" stroke="black" d="M41.5,-397C41.5,-397 110.5,-397 110.5,-397 116.5,-397 122.5,-403 122.5,-409 122.5,-409 122.5,-568 122.5,-568 122.5,-574 116.5,-580 110.5,-580 110.5,-580 41.5,-580 41.5,-580 35.5,-580 29.5,-574 29.5,-568 29.5,-568 29.5,-409 29.5,-409 29.5,-403 35.5,-397 41.5,-397"/>
<text text-anchor="middle" x="76" y="-564.8" font-family="Times,serif" font-size="14.00">etc</text>
</g>
<g id="clust23" class="cluster"><title>cluster_var</title>
<path fill="none" stroke="black" d="M28,-16C28,-16 124,-16 124,-16 130,-16 136,-22 136,-28 136,-28 136,-377 136,-377 136,-383 130,-389 124,-389 124,-389 28,-389 28,-389 22,-389 16,-383 16,-377 16,-377 16,-28 16,-28 16,-22 22,-16 28,-16"/>
<text text-anchor="middle" x="76" y="-373.8" font-family="Times,serif" font-size="14.00">var</text>
</g>
<g id="clust24" class="cluster"><title>cluster_var_log</title>
<path fill="none" stroke="black" d="M36,-24C36,-24 116,-24 116,-24 122,-24 128,-30 128,-36 128,-36 128,-346 128,-346 128,-352 122,-358 116,-358 116,-358 36,-358 36,-358 30,-358 24,-352 24,-346 24,-346 24,-36 24,-36 24,-30 30,-24 36,-24"/>
<text text-anchor="middle" x="76" y="-342.8" font-family="Times,serif" font-size="14.00">log</text>
</g>
<g id="clust25" class="cluster"><title>cluster_var_log_squid</title>
<path fill="none" stroke="black" d="M48,-252C48,-252 104,-252 104,-252 110,-252 116,-258 116,-264 116,-264 116,-315 116,-315 116,-321 110,-327 104,-327 104,-327 48,-327 48,-327 42,-327 36,-321 36,-315 36,-315 36,-264 36,-264 36,-258 42,-252 48,-252"/>
<text text-anchor="middle" x="76" y="-311.8" font-family="Times,serif" font-size="14.00">squid</text>
</g>
<g id="clust26" class="cluster"><title>cluster_var_log_apache2</title>
<path fill="none" stroke="black" d="M44,-115C44,-115 108,-115 108,-115 114,-115 120,-121 120,-127 120,-127 120,-232 120,-232 120,-238 114,-244 108,-244 108,-244 44,-244 44,-244 38,-244 32,-238 32,-232 32,-232 32,-127 32,-127 32,-121 38,-115 44,-115"/>
<text text-anchor="middle" x="76" y="-228.8" font-family="Times,serif" font-size="14.00">apache2</text>
</g>
<g id="clust27" class="cluster"><title>cluster_var_log_cups</title>
<path fill="none" stroke="black" d="M53,-32C53,-32 99,-32 99,-32 105,-32 111,-38 111,-44 111,-44 111,-95 111,-95 111,-101 105,-107 99,-107 99,-107 53,-107 53,-107 47,-107 41,-101 41,-95 41,-95 41,-44 41,-44 41,-38 47,-32 53,-32"/>
<text text-anchor="middle" x="76" y="-91.8" font-family="Times,serif" font-size="14.00">cups</text>
</g>
<!-- passwd -->
<g id="node1" class="node"><title>passwd</title>
<polygon fill="none" stroke="blue" points="98,-549 48,-549 48,-513 104,-513 104,-543 98,-549"/>
<polyline fill="none" stroke="blue" points="98,-549 98,-543 "/>
<polyline fill="none" stroke="blue" points="104,-543 98,-543 "/>
<text text-anchor="middle" x="76" y="-527.3" font-family="Times,serif" font-size="14.00" fill="blue">passwd</text>
</g>
<!-- intro.php -->
<g id="node3" class="node"><title>intro.php</title>
<polygon fill="none" stroke="blue" points="252,-319 192,-319 192,-283 258,-283 258,-313 252,-319"/>
<polyline fill="none" stroke="blue" points="252,-319 252,-313 "/>
<polyline fill="none" stroke="blue" points="258,-313 252,-313 "/>
<text text-anchor="middle" x="225" y="-297.3" font-family="Times,serif" font-size="14.00" fill="blue">intro.php</text>
</g>
<!-- passwd&#45;&gt;intro.php -->
<!-- store.log -->
<g id="node2" class="node"><title>store.log</title>
<polygon fill="none" stroke="blue" points="102,-296 44,-296 44,-260 108,-260 108,-290 102,-296"/>
<polyline fill="none" stroke="blue" points="102,-296 102,-290 "/>
<polyline fill="none" stroke="blue" points="108,-290 102,-290 "/>
<text text-anchor="middle" x="76" y="-274.3" font-family="Times,serif" font-size="14.00" fill="blue">store.log</text>
</g>
<!-- store.log&#45;&gt;intro.php -->
<!-- ex1.sh -->
<g id="node4" class="node"><title>ex1.sh</title>
<polygon fill="none" stroke="blue" points="371,-197 323,-197 323,-161 377,-161 377,-191 371,-197"/>
<polyline fill="none" stroke="blue" points="371,-197 371,-191 "/>
<polyline fill="none" stroke="blue" points="377,-191 371,-191 "/>
<text text-anchor="middle" x="350" y="-175.3" font-family="Times,serif" font-size="14.00" fill="blue">ex1.sh</text>
</g>
<!-- intro.php&#45;&gt;ex1.sh -->
<!-- hw2.sh -->
<g id="node5" class="node"><title>hw2.sh</title>
<polygon fill="none" stroke="blue" points="372,-319 322,-319 322,-283 378,-283 378,-313 372,-319"/>
<polyline fill="none" stroke="blue" points="372,-319 372,-313 "/>
<polyline fill="none" stroke="blue" points="378,-313 372,-313 "/>
<text text-anchor="middle" x="350" y="-297.3" font-family="Times,serif" font-size="14.00" fill="blue">hw2.sh</text>
</g>
<!-- intro.php&#45;&gt;hw2.sh -->
<!-- qz3.sh -->
<g id="node6" class="node"><title>qz3.sh</title>
<polygon fill="none" stroke="blue" points="371,-441 323,-441 323,-405 377,-405 377,-435 371,-441"/>
<polyline fill="none" stroke="blue" points="371,-441 371,-435 "/>
<polyline fill="none" stroke="blue" points="377,-435 371,-435 "/>
<text text-anchor="middle" x="350" y="-419.3" font-family="Times,serif" font-size="14.00" fill="blue">qz3.sh</text>
</g>
<!-- intro.php&#45;&gt;qz3.sh -->
<!-- pr4.sh -->
<g id="node7" class="node"><title>pr4.sh</title>
<polygon fill="none" stroke="blue" points="466,-187 418,-187 418,-151 472,-151 472,-181 466,-187"/>
<polyline fill="none" stroke="blue" points="466,-187 466,-181 "/>
<polyline fill="none" stroke="blue" points="472,-181 466,-181 "/>
<text text-anchor="middle" x="445" y="-165.3" font-family="Times,serif" font-size="14.00" fill="blue">pr4.sh</text>
</g>
<!-- ex1.sh&#45;&gt;pr4.sh -->
<!-- ts5.sh -->
<g id="node8" class="node"><title>ts5.sh</title>
<polygon fill="none" stroke="blue" points="466,-309 418,-309 418,-273 472,-273 472,-303 466,-309"/>
<polyline fill="none" stroke="blue" points="466,-309 466,-303 "/>
<polyline fill="none" stroke="blue" points="472,-303 466,-303 "/>
<text text-anchor="middle" x="445" y="-287.3" font-family="Times,serif" font-size="14.00" fill="blue">ts5.sh</text>
</g>
<!-- ex1.sh&#45;&gt;ts5.sh -->
<!-- index.php -->
<g id="node9" class="node"><title>index.php</title>
<polygon fill="none" stroke="blue" points="254.5,-176 189.5,-176 189.5,-140 260.5,-140 260.5,-170 254.5,-176"/>
<polyline fill="none" stroke="blue" points="254.5,-176 254.5,-170 "/>
<polyline fill="none" stroke="blue" points="260.5,-170 254.5,-170 "/>
<text text-anchor="middle" x="225" y="-154.3" font-family="Times,serif" font-size="14.00" fill="blue">index.php</text>
</g>
<!-- console.php -->
<g id="node10" class="node"><title>console.php</title>
<polygon fill="none" stroke="blue" points="260,-402 184,-402 184,-366 266,-366 266,-396 260,-402"/>
<polyline fill="none" stroke="blue" points="260,-402 260,-396 "/>
<polyline fill="none" stroke="blue" points="266,-396 260,-396 "/>
<text text-anchor="middle" x="225" y="-380.3" font-family="Times,serif" font-size="14.00" fill="blue">console.php</text>
</g>
<!-- idiom.php -->
<g id="node11" class="node"><title>idiom.php</title>
<polygon fill="none" stroke="blue" points="255.5,-236 188.5,-236 188.5,-200 261.5,-200 261.5,-230 255.5,-236"/>
<polyline fill="none" stroke="blue" points="255.5,-236 255.5,-230 "/>
<polyline fill="none" stroke="blue" points="261.5,-230 255.5,-230 "/>
<text text-anchor="middle" x="225" y="-214.3" font-family="Times,serif" font-size="14.00" fill="blue">idiom.php</text>
</g>
<!-- resolv.conf -->
<g id="node12" class="node"><title>resolv.conf</title>
<polygon fill="none" stroke="blue" points="108.5,-495 37.5,-495 37.5,-459 114.5,-459 114.5,-489 108.5,-495"/>
<polyline fill="none" stroke="blue" points="108.5,-495 108.5,-489 "/>
<polyline fill="none" stroke="blue" points="114.5,-489 108.5,-489 "/>
<text text-anchor="middle" x="76" y="-473.3" font-family="Times,serif" font-size="14.00" fill="blue">resolv.conf</text>
</g>
<!-- shadow -->
<g id="node13" class="node"><title>shadow</title>
<polygon fill="none" stroke="blue" points="99,-441 47,-441 47,-405 105,-405 105,-435 99,-441"/>
<polyline fill="none" stroke="blue" points="99,-441 99,-435 "/>
<polyline fill="none" stroke="blue" points="105,-435 99,-435 "/>
<text text-anchor="middle" x="76" y="-419.3" font-family="Times,serif" font-size="14.00" fill="blue">shadow</text>
</g>
<!-- access.log -->
<g id="node14" class="node"><title>access.log</title>
<polygon fill="none" stroke="blue" points="106,-213 40,-213 40,-177 112,-177 112,-207 106,-213"/>
<polyline fill="none" stroke="blue" points="106,-213 106,-207 "/>
<polyline fill="none" stroke="blue" points="112,-207 106,-207 "/>
<text text-anchor="middle" x="76" y="-191.3" font-family="Times,serif" font-size="14.00" fill="blue">access.log</text>
</g>
<!-- error.log -->
<g id="node15" class="node"><title>error.log</title>
<polygon fill="none" stroke="blue" points="102,-159 44,-159 44,-123 108,-123 108,-153 102,-159"/>
<polyline fill="none" stroke="blue" points="102,-159 102,-153 "/>
<polyline fill="none" stroke="blue" points="108,-153 102,-153 "/>
<text text-anchor="middle" x="76" y="-137.3" font-family="Times,serif" font-size="14.00" fill="blue">error.log</text>
</g>
<!-- error -->
<g id="node16" class="node"><title>error</title>
<polygon fill="none" stroke="blue" points="97,-76 49,-76 49,-40 103,-40 103,-70 97,-76"/>
<polyline fill="none" stroke="blue" points="97,-76 97,-70 "/>
<polyline fill="none" stroke="blue" points="103,-70 97,-70 "/>
<text text-anchor="middle" x="76" y="-54.3" font-family="Times,serif" font-size="14.00" fill="blue">error</text>
</g>
</g>
</svg>
