<?xml version="1.0" encoding="UTF-8" standalone="no"?>
<!DOCTYPE svg PUBLIC "-//W3C//DTD SVG 1.1//EN"
 "http://www.w3.org/Graphics/SVG/1.1/DTD/svg11.dtd">
<!-- Generated by graphviz version 2.38.0 (20140413.2041)
 -->
<!-- Title: G Pages: 1 -->
<svg width="520pt" height="627pt"
 viewBox="0.00 0.00 520.00 627.00" xmlns="http://www.w3.org/2000/svg" xmlns:xlink="http://www.w3.org/1999/xlink">
<g id="graph0" class="graph" transform="scale(1 1) rotate(0) translate(4 623)">
<title>G</title>
<polygon fill="white" stroke="none" points="-4,4 -4,-623 516,-623 516,4 -4,4"/>
<g id="clust1" class="cluster"><title>cluster</title>
<path fill="none" stroke="black" d="M20,-8C20,-8 492,-8 492,-8 498,-8 504,-14 504,-20 504,-20 504,-599 504,-599 504,-605 498,-611 492,-611 492,-611 20,-611 20,-611 14,-611 8,-605 8,-599 8,-599 8,-20 8,-20 8,-14 14,-8 20,-8"/>
<text text-anchor="middle" x="256" y="-595.8" font-family="Times,serif" font-size="14.00">/</text>
</g>
<g id="clust2" class="cluster"><title>cluster/etc</title>
<path fill="none" stroke="black" d="M41.5,-397C41.5,-397 110.5,-397 110.5,-397 116.5,-397 122.5,-403 122.5,-409 122.5,-409 122.5,-568 122.5,-568 122.5,-574 116.5,-580 110.5,-580 110.5,-580 41.5,-580 41.5,-580 35.5,-580 29.5,-574 29.5,-568 29.5,-568 29.5,-409 29.5,-409 29.5,-403 35.5,-397 41.5,-397"/>
<text text-anchor="middle" x="76" y="-564.8" font-family="Times,serif" font-size="14.00">etc</text>
</g>
<g id="clust3" class="cluster"><title>cluster/home</title>
<path fill="none" stroke="black" d="M156,-77C156,-77 484,-77 484,-77 490,-77 496,-83 496,-89 496,-89 496,-506 496,-506 496,-512 490,-518 484,-518 484,-518 156,-518 156,-518 150,-518 144,-512 144,-506 144,-506 144,-89 144,-89 144,-83 150,-77 156,-77"/>
<text text-anchor="middle" x="320" y="-502.8" font-family="Times,serif" font-size="14.00">home</text>
</g>
<g id="clust4" class="cluster"><title>cluster/home/s10424</title>
<path fill="none" stroke="black" d="M414,-239C414,-239 476,-239 476,-239 482,-239 488,-245 488,-251 488,-251 488,-341 488,-341 488,-347 482,-353 476,-353 476,-353 414,-353 414,-353 408,-353 402,-347 402,-341 402,-341 402,-251 402,-251 402,-245 408,-239 414,-239"/>
<text text-anchor="middle" x="445" y="-337.8" font-family="Times,serif" font-size="14.00">s10424</text>
</g>
<g id="clust5" class="cluster"><title>cluster/home/s10424/www</title>
<path fill="none" stroke="black" d="M422,-247C422,-247 468,-247 468,-247 474,-247 480,-253 480,-259 480,-259 480,-310 480,-310 480,-316 474,-322 468,-322 468,-322 422,-322 422,-322 416,-322 410,-316 410,-310 410,-310 410,-259 410,-259 410,-253 416,-247 422,-247"/>
<text text-anchor="middle" x="445" y="-306.8" font-family="Times,serif" font-size="14.00">www</text>
</g>
<g id="clust6" class="cluster"><title>cluster/home/s10423</title>
<path fill="none" stroke="black" d="M319,-106C319,-106 381,-106 381,-106 387,-106 393,-112 393,-118 393,-118 393,-208 393,-208 393,-214 387,-220 381,-220 381,-220 319,-220 319,-220 313,-220 307,-214 307,-208 307,-208 307,-118 307,-118 307,-112 313,-106 319,-106"/>
<text text-anchor="middle" x="350" y="-204.8" font-family="Times,serif" font-size="14.00">s10423</text>
</g>
<g id="clust7" class="cluster"><title>cluster/home/s10423/www</title>
<path fill="none" stroke="black" d="M327,-114C327,-114 373,-114 373,-114 379,-114 385,-120 385,-126 385,-126 385,-177 385,-177 385,-183 379,-189 373,-189 373,-189 327,-189 327,-189 321,-189 315,-183 315,-177 315,-177 315,-126 315,-126 315,-120 321,-114 327,-114"/>
<text text-anchor="middle" x="350" y="-173.8" font-family="Times,serif" font-size="14.00">www</text>
</g>
<g id="clust8" class="cluster"><title>cluster/home/s10425</title>
<path fill="none" stroke="black" d="M414,-361C414,-361 476,-361 476,-361 482,-361 488,-367 488,-373 488,-373 488,-463 488,-463 488,-469 482,-475 476,-475 476,-475 414,-475 414,-475 408,-475 402,-469 402,-463 402,-463 402,-373 402,-373 402,-367 408,-361 414,-361"/>
<text text-anchor="middle" x="445" y="-459.8" font-family="Times,serif" font-size="14.00">s10425</text>
</g>
<g id="clust9" class="cluster"><title>cluster/home/s10425/www</title>
<path fill="none" stroke="black" d="M422,-369C422,-369 468,-369 468,-369 474,-369 480,-375 480,-381 480,-381 480,-432 480,-432 480,-438 474,-444 468,-444 468,-444 422,-444 422,-444 416,-444 410,-438 410,-432 410,-432 410,-381 410,-381 410,-375 416,-369 422,-369"/>
<text text-anchor="middle" x="445" y="-428.8" font-family="Times,serif" font-size="14.00">www</text>
</g>
<g id="clust10" class="cluster"><title>cluster/home/ckhung</title>
<path fill="none" stroke="black" d="M164,-85C164,-85 286,-85 286,-85 292,-85 298,-91 298,-97 298,-97 298,-475 298,-475 298,-481 292,-487 286,-487 286,-487 164,-487 164,-487 158,-487 152,-481 152,-475 152,-475 152,-97 152,-97 152,-91 158,-85 164,-85"/>
<text text-anchor="middle" x="225" y="-471.8" font-family="Times,serif" font-size="14.00">ckhung</text>
</g>
<g id="clust11" class="cluster"><title>cluster/home/ckhung/www</title>
<path fill="none" stroke="black" d="M172,-93C172,-93 278,-93 278,-93 284,-93 290,-99 290,-105 290,-105 290,-444 290,-444 290,-450 284,-456 278,-456 278,-456 172,-456 172,-456 166,-456 160,-450 160,-444 160,-444 160,-105 160,-105 160,-99 166,-93 172,-93"/>
<text text-anchor="middle" x="225" y="-440.8" font-family="Times,serif" font-size="14.00">www</text>
</g>
<g id="clust12" class="cluster"><title>cluster/home/ckhung/www/b</title>
<path fill="none" stroke="black" d="M180,-145C180,-145 270,-145 270,-145 276,-145 282,-151 282,-157 282,-157 282,-413 282,-413 282,-419 276,-425 270,-425 270,-425 180,-425 180,-425 174,-425 168,-419 168,-413 168,-413 168,-157 168,-157 168,-151 174,-145 180,-145"/>
<text text-anchor="middle" x="225" y="-409.8" font-family="Times,serif" font-size="14.00">b</text>
</g>
<g id="clust13" class="cluster"><title>cluster/home/ckhung/www/b/pl</title>
<path fill="none" stroke="black" d="M192.5,-319C192.5,-319 257.5,-319 257.5,-319 263.5,-319 269.5,-325 269.5,-331 269.5,-331 269.5,-382 269.5,-382 269.5,-388 263.5,-394 257.5,-394 257.5,-394 192.5,-394 192.5,-394 186.5,-394 180.5,-388 180.5,-382 180.5,-382 180.5,-331 180.5,-331 180.5,-325 186.5,-319 192.5,-319"/>
<text text-anchor="middle" x="225" y="-378.8" font-family="Times,serif" font-size="14.00">pl</text>
</g>
<g id="clust14" class="cluster"><title>cluster/home/ckhung/www/b/re</title>
<path fill="none" stroke="black" d="M196,-236C196,-236 254,-236 254,-236 260,-236 266,-242 266,-248 266,-248 266,-299 266,-299 266,-305 260,-311 254,-311 254,-311 196,-311 196,-311 190,-311 184,-305 184,-299 184,-299 184,-248 184,-248 184,-242 190,-236 196,-236"/>
<text text-anchor="middle" x="225" y="-295.8" font-family="Times,serif" font-size="14.00">re</text>
</g>
<g id="clust15" class="cluster"><title>cluster/home/ckhung/www/b/js</title>
<path fill="none" stroke="black" d="M188,-153C188,-153 262,-153 262,-153 268,-153 274,-159 274,-165 274,-165 274,-216 274,-216 274,-222 268,-228 262,-228 262,-228 188,-228 188,-228 182,-228 176,-222 176,-216 176,-216 176,-165 176,-165 176,-159 182,-153 188,-153"/>
<text text-anchor="middle" x="225" y="-212.8" font-family="Times,serif" font-size="14.00">js</text>
</g>
<g id="clust16" class="cluster"><title>cluster/home/s10422</title>
<path fill="none" stroke="black" d="M318,-228C318,-228 382,-228 382,-228 388,-228 394,-234 394,-240 394,-240 394,-330 394,-330 394,-336 388,-342 382,-342 382,-342 318,-342 318,-342 312,-342 306,-336 306,-330 306,-330 306,-240 306,-240 306,-234 312,-228 318,-228"/>
<text text-anchor="middle" x="350" y="-326.8" font-family="Times,serif" font-size="14.00">s10422</text>
</g>
<g id="clust17" class="cluster"><title>cluster/home/s10422/www</title>
<path fill="none" stroke="black" d="M326,-236C326,-236 374,-236 374,-236 380,-236 386,-242 386,-248 386,-248 386,-299 386,-299 386,-305 380,-311 374,-311 374,-311 326,-311 326,-311 320,-311 314,-305 314,-299 314,-299 314,-248 314,-248 314,-242 320,-236 326,-236"/>
<text text-anchor="middle" x="350" y="-295.8" font-family="Times,serif" font-size="14.00">www</text>
</g>
<g id="clust18" class="cluster"><title>cluster/home/s10421</title>
<path fill="none" stroke="black" d="M319,-350C319,-350 381,-350 381,-350 387,-350 393,-356 393,-362 393,-362 393,-452 393,-452 393,-458 387,-464 381,-464 381,-464 319,-464 319,-464 313,-464 307,-458 307,-452 307,-452 307,-362 307,-362 307,-356 313,-350 319,-350"/>
<text text-anchor="middle" x="350" y="-448.8" font-family="Times,serif" font-size="14.00">s10421</text>
</g>
<g id="clust19" class="cluster"><title>cluster/home/s10421/www</title>
<path fill="none" stroke="black" d="M327,-358C327,-358 373,-358 373,-358 379,-358 385,-364 385,-370 385,-370 385,-421 385,-421 385,-427 379,-433 373,-433 373,-433 327,-433 327,-433 321,-433 315,-427 315,-421 315,-421 315,-370 315,-370 315,-364 321,-358 327,-358"/>
<text text-anchor="middle" x="350" y="-417.8" font-family="Times,serif" font-size="14.00">www</text>
</g>
<g id="clust20" class="cluster"><title>cluster/var</title>
<path fill="none" stroke="black" d="M28,-16C28,-16 124,-16 124,-16 130,-16 136,-22 136,-28 136,-28 136,-377 136,-377 136,-383 130,-389 124,-389 124,-389 28,-389 28,-389 22,-389 16,-383 16,-377 16,-377 16,-28 16,-28 16,-22 22,-16 28,-16"/>
<text text-anchor="middle" x="76" y="-373.8" font-family="Times,serif" font-size="14.00">var</text>
</g>
<g id="clust21" class="cluster"><title>cluster/var/log</title>
<path fill="none" stroke="black" d="M36,-24C36,-24 116,-24 116,-24 122,-24 128,-30 128,-36 128,-36 128,-346 128,-346 128,-352 122,-358 116,-358 116,-358 36,-358 36,-358 30,-358 24,-352 24,-346 24,-346 24,-36 24,-36 24,-30 30,-24 36,-24"/>
<text text-anchor="middle" x="76" y="-342.8" font-family="Times,serif" font-size="14.00">log</text>
</g>
<g id="clust22" class="cluster"><title>cluster/var/log/cups</title>
<path fill="none" stroke="black" d="M53,-252C53,-252 99,-252 99,-252 105,-252 111,-258 111,-264 111,-264 111,-315 111,-315 111,-321 105,-327 99,-327 99,-327 53,-327 53,-327 47,-327 41,-321 41,-315 41,-315 41,-264 41,-264 41,-258 47,-252 53,-252"/>
<text text-anchor="middle" x="76" y="-311.8" font-family="Times,serif" font-size="14.00">cups</text>
</g>
<g id="clust23" class="cluster"><title>cluster/var/log/squid</title>
<path fill="none" stroke="black" d="M48,-169C48,-169 104,-169 104,-169 110,-169 116,-175 116,-181 116,-181 116,-232 116,-232 116,-238 110,-244 104,-244 104,-244 48,-244 48,-244 42,-244 36,-238 36,-232 36,-232 36,-181 36,-181 36,-175 42,-169 48,-169"/>
<text text-anchor="middle" x="76" y="-228.8" font-family="Times,serif" font-size="14.00">squid</text>
</g>
<g id="clust24" class="cluster"><title>cluster/var/log/apache2</title>
<path fill="none" stroke="black" d="M44,-32C44,-32 108,-32 108,-32 114,-32 120,-38 120,-44 120,-44 120,-149 120,-149 120,-155 114,-161 108,-161 108,-161 44,-161 44,-161 38,-161 32,-155 32,-149 32,-149 32,-44 32,-44 32,-38 38,-32 44,-32"/>
<text text-anchor="middle" x="76" y="-145.8" font-family="Times,serif" font-size="14.00">apache2</text>
</g>
<!-- /etc/resolv.conf -->
<g id="node1" class="node"><title>/etc/resolv.conf</title>
<polygon fill="none" stroke="blue" points="108.5,-549 37.5,-549 37.5,-513 114.5,-513 114.5,-543 108.5,-549"/>
<polyline fill="none" stroke="blue" points="108.5,-549 108.5,-543 "/>
<polyline fill="none" stroke="blue" points="114.5,-543 108.5,-543 "/>
<text text-anchor="middle" x="76" y="-527.3" font-family="Times,serif" font-size="14.00" fill="blue">resolv.conf</text>
</g>
<!-- /etc/shadow -->
<g id="node2" class="node"><title>/etc/shadow</title>
<polygon fill="none" stroke="blue" points="99,-495 47,-495 47,-459 105,-459 105,-489 99,-495"/>
<polyline fill="none" stroke="blue" points="99,-495 99,-489 "/>
<polyline fill="none" stroke="blue" points="105,-489 99,-489 "/>
<text text-anchor="middle" x="76" y="-473.3" font-family="Times,serif" font-size="14.00" fill="blue">shadow</text>
</g>
<!-- /etc/passwd -->
<g id="node3" class="node"><title>/etc/passwd</title>
<polygon fill="none" stroke="blue" points="98,-441 48,-441 48,-405 104,-405 104,-435 98,-441"/>
<polyline fill="none" stroke="blue" points="98,-441 98,-435 "/>
<polyline fill="none" stroke="blue" points="104,-435 98,-435 "/>
<text text-anchor="middle" x="76" y="-419.3" font-family="Times,serif" font-size="14.00" fill="blue">passwd</text>
</g>
<!-- /home/ckhung/www/b/re/intro.php -->
<g id="node8" class="node"><title>/home/ckhung/www/b/re/intro.php</title>
<polygon fill="none" stroke="blue" points="252,-280 192,-280 192,-244 258,-244 258,-274 252,-280"/>
<polyline fill="none" stroke="blue" points="252,-280 252,-274 "/>
<polyline fill="none" stroke="blue" points="258,-274 252,-274 "/>
<text text-anchor="middle" x="225" y="-258.3" font-family="Times,serif" font-size="14.00" fill="blue">intro.php</text>
</g>
<!-- /etc/passwd&#45;&gt;/home/ckhung/www/b/re/intro.php -->
<!-- /home/s10424/www/pr4.sh -->
<g id="node4" class="node"><title>/home/s10424/www/pr4.sh</title>
<polygon fill="none" stroke="blue" points="466,-291 418,-291 418,-255 472,-255 472,-285 466,-291"/>
<polyline fill="none" stroke="blue" points="466,-291 466,-285 "/>
<polyline fill="none" stroke="blue" points="472,-285 466,-285 "/>
<text text-anchor="middle" x="445" y="-269.3" font-family="Times,serif" font-size="14.00" fill="blue">pr4.sh</text>
</g>
<!-- /home/s10423/www/qz3.sh -->
<g id="node5" class="node"><title>/home/s10423/www/qz3.sh</title>
<polygon fill="none" stroke="blue" points="371,-158 323,-158 323,-122 377,-122 377,-152 371,-158"/>
<polyline fill="none" stroke="blue" points="371,-158 371,-152 "/>
<polyline fill="none" stroke="blue" points="377,-152 371,-152 "/>
<text text-anchor="middle" x="350" y="-136.3" font-family="Times,serif" font-size="14.00" fill="blue">qz3.sh</text>
</g>
<!-- /home/s10425/www/ts5.sh -->
<g id="node6" class="node"><title>/home/s10425/www/ts5.sh</title>
<polygon fill="none" stroke="blue" points="466,-413 418,-413 418,-377 472,-377 472,-407 466,-413"/>
<polyline fill="none" stroke="blue" points="466,-413 466,-407 "/>
<polyline fill="none" stroke="blue" points="472,-407 466,-407 "/>
<text text-anchor="middle" x="445" y="-391.3" font-family="Times,serif" font-size="14.00" fill="blue">ts5.sh</text>
</g>
<!-- /home/ckhung/www/b/pl/idiom.php -->
<g id="node7" class="node"><title>/home/ckhung/www/b/pl/idiom.php</title>
<polygon fill="none" stroke="blue" points="255.5,-363 188.5,-363 188.5,-327 261.5,-327 261.5,-357 255.5,-363"/>
<polyline fill="none" stroke="blue" points="255.5,-363 255.5,-357 "/>
<polyline fill="none" stroke="blue" points="261.5,-357 255.5,-357 "/>
<text text-anchor="middle" x="225" y="-341.3" font-family="Times,serif" font-size="14.00" fill="blue">idiom.php</text>
</g>
<!-- /home/ckhung/www/b/re/intro.php&#45;&gt;/home/s10423/www/qz3.sh -->
<!-- /home/s10422/www/hw2.sh -->
<g id="node11" class="node"><title>/home/s10422/www/hw2.sh</title>
<polygon fill="none" stroke="blue" points="372,-280 322,-280 322,-244 378,-244 378,-274 372,-280"/>
<polyline fill="none" stroke="blue" points="372,-280 372,-274 "/>
<polyline fill="none" stroke="blue" points="378,-274 372,-274 "/>
<text text-anchor="middle" x="350" y="-258.3" font-family="Times,serif" font-size="14.00" fill="blue">hw2.sh</text>
</g>
<!-- /home/ckhung/www/b/re/intro.php&#45;&gt;/home/s10422/www/hw2.sh -->
<!-- /home/s10421/www/ex1.sh -->
<g id="node12" class="node"><title>/home/s10421/www/ex1.sh</title>
<polygon fill="none" stroke="blue" points="371,-402 323,-402 323,-366 377,-366 377,-396 371,-402"/>
<polyline fill="none" stroke="blue" points="371,-402 371,-396 "/>
<polyline fill="none" stroke="blue" points="377,-396 371,-396 "/>
<text text-anchor="middle" x="350" y="-380.3" font-family="Times,serif" font-size="14.00" fill="blue">ex1.sh</text>
</g>
<!-- /home/ckhung/www/b/re/intro.php&#45;&gt;/home/s10421/www/ex1.sh -->
<!-- /home/ckhung/www/b/js/console.php -->
<g id="node9" class="node"><title>/home/ckhung/www/b/js/console.php</title>
<polygon fill="none" stroke="blue" points="260,-197 184,-197 184,-161 266,-161 266,-191 260,-197"/>
<polyline fill="none" stroke="blue" points="260,-197 260,-191 "/>
<polyline fill="none" stroke="blue" points="266,-191 260,-191 "/>
<text text-anchor="middle" x="225" y="-175.3" font-family="Times,serif" font-size="14.00" fill="blue">console.php</text>
</g>
<!-- /home/ckhung/www/index.php -->
<g id="node10" class="node"><title>/home/ckhung/www/index.php</title>
<polygon fill="none" stroke="blue" points="254.5,-137 189.5,-137 189.5,-101 260.5,-101 260.5,-131 254.5,-137"/>
<polyline fill="none" stroke="blue" points="254.5,-137 254.5,-131 "/>
<polyline fill="none" stroke="blue" points="260.5,-131 254.5,-131 "/>
<text text-anchor="middle" x="225" y="-115.3" font-family="Times,serif" font-size="14.00" fill="blue">index.php</text>
</g>
<!-- /home/s10421/www/ex1.sh&#45;&gt;/home/s10424/www/pr4.sh -->
<!-- /home/s10421/www/ex1.sh&#45;&gt;/home/s10425/www/ts5.sh -->
<!-- /var/log/cups/error -->
<g id="node13" class="node"><title>/var/log/cups/error</title>
<polygon fill="none" stroke="blue" points="97,-296 49,-296 49,-260 103,-260 103,-290 97,-296"/>
<polyline fill="none" stroke="blue" points="97,-296 97,-290 "/>
<polyline fill="none" stroke="blue" points="103,-290 97,-290 "/>
<text text-anchor="middle" x="76" y="-274.3" font-family="Times,serif" font-size="14.00" fill="blue">error</text>
</g>
<!-- /var/log/squid/store.log -->
<g id="node14" class="node"><title>/var/log/squid/store.log</title>
<polygon fill="none" stroke="blue" points="102,-213 44,-213 44,-177 108,-177 108,-207 102,-213"/>
<polyline fill="none" stroke="blue" points="102,-213 102,-207 "/>
<polyline fill="none" stroke="blue" points="108,-207 102,-207 "/>
<text text-anchor="middle" x="76" y="-191.3" font-family="Times,serif" font-size="14.00" fill="blue">store.log</text>
</g>
<!-- /var/log/squid/store.log&#45;&gt;/home/ckhung/www/b/re/intro.php -->
<!-- /var/log/apache2/error.log -->
<g id="node15" class="node"><title>/var/log/apache2/error.log</title>
<polygon fill="none" stroke="blue" points="102,-130 44,-130 44,-94 108,-94 108,-124 102,-130"/>
<polyline fill="none" stroke="blue" points="102,-130 102,-124 "/>
<polyline fill="none" stroke="blue" points="108,-124 102,-124 "/>
<text text-anchor="middle" x="76" y="-108.3" font-family="Times,serif" font-size="14.00" fill="blue">error.log</text>
</g>
<!-- /var/log/apache2/access.log -->
<g id="node16" class="node"><title>/var/log/apache2/access.log</title>
<polygon fill="none" stroke="blue" points="106,-76 40,-76 40,-40 112,-40 112,-70 106,-76"/>
<polyline fill="none" stroke="blue" points="106,-76 106,-70 "/>
<polyline fill="none" stroke="blue" points="112,-70 106,-70 "/>
<text text-anchor="middle" x="76" y="-54.3" font-family="Times,serif" font-size="14.00" fill="blue">access.log</text>
</g>
</g>
</svg>
