<?xml version="1.0" encoding="UTF-8" standalone="no"?>
<!DOCTYPE svg PUBLIC "-//W3C//DTD SVG 1.1//EN"
 "http://www.w3.org/Graphics/SVG/1.1/DTD/svg11.dtd">
<!-- Generated by graphviz version 2.38.0 (20140413.2041)
 -->
<!-- Title: G Pages: 1 -->
<svg width="520pt" height="627pt"
 viewBox="0.00 0.00 520.00 627.00" xmlns="http://www.w3.org/2000/svg" xmlns:xlink="http://www.w3.org/1999/xlink">
<g id="graph0" class="graph" transform="scale(1 1) rotate(0) translate(4 623)">
<title>G</title>
<polygon fill="white" stroke="none" points="-4,4 -4,-623 516,-623 516,4 -4,4"/>
<g id="clust1" class="cluster"><title>cluster</title>
<path fill="none" stroke="black" d="M20,-8C20,-8 492,-8 492,-8 498,-8 504,-14 504,-20 504,-20 504,-599 504,-599 504,-605 498,-611 492,-611 492,-611 20,-611 20,-611 14,-611 8,-605 8,-599 8,-599 8,-20 8,-20 8,-14 14,-8 20,-8"/>
<text text-anchor="middle" x="256" y="-595.8" font-family="Times,serif" font-size="14.00">/</text>
</g>
<g id="clust2" class="cluster"><title>cluster/var</title>
<path fill="none" stroke="black" d="M28,-207C28,-207 124,-207 124,-207 130,-207 136,-213 136,-219 136,-219 136,-568 136,-568 136,-574 130,-580 124,-580 124,-580 28,-580 28,-580 22,-580 16,-574 16,-568 16,-568 16,-219 16,-219 16,-213 22,-207 28,-207"/>
<text text-anchor="middle" x="76" y="-564.8" font-family="Times,serif" font-size="14.00">var</text>
</g>
<g id="clust3" class="cluster"><title>cluster/var/log</title>
<path fill="none" stroke="black" d="M36,-215C36,-215 116,-215 116,-215 122,-215 128,-221 128,-227 128,-227 128,-537 128,-537 128,-543 122,-549 116,-549 116,-549 36,-549 36,-549 30,-549 24,-543 24,-537 24,-537 24,-227 24,-227 24,-221 30,-215 36,-215"/>
<text text-anchor="middle" x="76" y="-533.8" font-family="Times,serif" font-size="14.00">log</text>
</g>
<g id="clust4" class="cluster"><title>cluster/var/log/cups</title>
<path fill="none" stroke="black" d="M53,-443C53,-443 99,-443 99,-443 105,-443 111,-449 111,-455 111,-455 111,-506 111,-506 111,-512 105,-518 99,-518 99,-518 53,-518 53,-518 47,-518 41,-512 41,-506 41,-506 41,-455 41,-455 41,-449 47,-443 53,-443"/>
<text text-anchor="middle" x="76" y="-502.8" font-family="Times,serif" font-size="14.00">cups</text>
</g>
<g id="clust5" class="cluster"><title>cluster/var/log/squid</title>
<path fill="none" stroke="black" d="M48,-360C48,-360 104,-360 104,-360 110,-360 116,-366 116,-372 116,-372 116,-423 116,-423 116,-429 110,-435 104,-435 104,-435 48,-435 48,-435 42,-435 36,-429 36,-423 36,-423 36,-372 36,-372 36,-366 42,-360 48,-360"/>
<text text-anchor="middle" x="76" y="-419.8" font-family="Times,serif" font-size="14.00">squid</text>
</g>
<g id="clust6" class="cluster"><title>cluster/var/log/apache2</title>
<path fill="none" stroke="black" d="M44,-223C44,-223 108,-223 108,-223 114,-223 120,-229 120,-235 120,-235 120,-340 120,-340 120,-346 114,-352 108,-352 108,-352 44,-352 44,-352 38,-352 32,-346 32,-340 32,-340 32,-235 32,-235 32,-229 38,-223 44,-223"/>
<text text-anchor="middle" x="76" y="-336.8" font-family="Times,serif" font-size="14.00">apache2</text>
</g>
<g id="clust7" class="cluster"><title>cluster/etc</title>
<path fill="none" stroke="black" d="M41.5,-16C41.5,-16 110.5,-16 110.5,-16 116.5,-16 122.5,-22 122.5,-28 122.5,-28 122.5,-187 122.5,-187 122.5,-193 116.5,-199 110.5,-199 110.5,-199 41.5,-199 41.5,-199 35.5,-199 29.5,-193 29.5,-187 29.5,-187 29.5,-28 29.5,-28 29.5,-22 35.5,-16 41.5,-16"/>
<text text-anchor="middle" x="76" y="-183.8" font-family="Times,serif" font-size="14.00">etc</text>
</g>
<g id="clust8" class="cluster"><title>cluster/home</title>
<path fill="none" stroke="black" d="M156,-77C156,-77 484,-77 484,-77 490,-77 496,-83 496,-89 496,-89 496,-506 496,-506 496,-512 490,-518 484,-518 484,-518 156,-518 156,-518 150,-518 144,-512 144,-506 144,-506 144,-89 144,-89 144,-83 150,-77 156,-77"/>
<text text-anchor="middle" x="320" y="-502.8" font-family="Times,serif" font-size="14.00">home</text>
</g>
<g id="clust9" class="cluster"><title>cluster/home/ckhung</title>
<path fill="none" stroke="black" d="M164,-85C164,-85 286,-85 286,-85 292,-85 298,-91 298,-97 298,-97 298,-475 298,-475 298,-481 292,-487 286,-487 286,-487 164,-487 164,-487 158,-487 152,-481 152,-475 152,-475 152,-97 152,-97 152,-91 158,-85 164,-85"/>
<text text-anchor="middle" x="225" y="-471.8" font-family="Times,serif" font-size="14.00">ckhung</text>
</g>
<g id="clust10" class="cluster"><title>cluster/home/ckhung/www</title>
<path fill="none" stroke="black" d="M172,-93C172,-93 278,-93 278,-93 284,-93 290,-99 290,-105 290,-105 290,-444 290,-444 290,-450 284,-456 278,-456 278,-456 172,-456 172,-456 166,-456 160,-450 160,-444 160,-444 160,-105 160,-105 160,-99 166,-93 172,-93"/>
<text text-anchor="middle" x="225" y="-440.8" font-family="Times,serif" font-size="14.00">www</text>
</g>
<g id="clust11" class="cluster"><title>cluster/home/ckhung/www/b</title>
<path fill="none" stroke="black" d="M180,-145C180,-145 270,-145 270,-145 276,-145 282,-151 282,-157 282,-157 282,-413 282,-413 282,-419 276,-425 270,-425 270,-425 180,-425 180,-425 174,-425 168,-419 168,-413 168,-413 168,-157 168,-157 168,-151 174,-145 180,-145"/>
<text text-anchor="middle" x="225" y="-409.8" font-family="Times,serif" font-size="14.00">b</text>
</g>
<g id="clust12" class="cluster"><title>cluster/home/ckhung/www/b/pl</title>
<path fill="none" stroke="black" d="M192.5,-319C192.5,-319 257.5,-319 257.5,-319 263.5,-319 269.5,-325 269.5,-331 269.5,-331 269.5,-382 269.5,-382 269.5,-388 263.5,-394 257.5,-394 257.5,-394 192.5,-394 192.5,-394 186.5,-394 180.5,-388 180.5,-382 180.5,-382 180.5,-331 180.5,-331 180.5,-325 186.5,-319 192.5,-319"/>
<text text-anchor="middle" x="225" y="-378.8" font-family="Times,serif" font-size="14.00">pl</text>
</g>
<g id="clust13" class="cluster"><title>cluster/home/ckhung/www/b/re</title>
<path fill="none" stroke="black" d="M196,-236C196,-236 254,-236 254,-236 260,-236 266,-242 266,-248 266,-248 266,-299 266,-299 266,-305 260,-311 254,-311 254,-311 196,-311 196,-311 190,-311 184,-305 184,-299 184,-299 184,-248 184,-248 184,-242 190,-236 196,-236"/>
<text text-anchor="middle" x="225" y="-295.8" font-family="Times,serif" font-size="14.00">re</text>
</g>
<g id="clust14" class="cluster"><title>cluster/home/ckhung/www/b/js</title>
<path fill="none" stroke="black" d="M188,-153C188,-153 262,-153 262,-153 268,-153 274,-159 274,-165 274,-165 274,-216 274,-216 274,-222 268,-228 262,-228 262,-228 188,-228 188,-228 182,-228 176,-222 176,-216 176,-216 176,-165 176,-165 176,-159 182,-153 188,-153"/>
<text text-anchor="middle" x="225" y="-212.8" font-family="Times,serif" font-size="14.00">js</text>
</g>
<g id="clust15" class="cluster"><title>cluster/home/s10423</title>
<path fill="none" stroke="black" d="M319,-106C319,-106 381,-106 381,-106 387,-106 393,-112 393,-118 393,-118 393,-208 393,-208 393,-214 387,-220 381,-220 381,-220 319,-220 319,-220 313,-220 307,-214 307,-208 307,-208 307,-118 307,-118 307,-112 313,-106 319,-106"/>
<text text-anchor="middle" x="350" y="-204.8" font-family="Times,serif" font-size="14.00">s10423</text>
</g>
<g id="clust16" class="cluster"><title>cluster/home/s10423/www</title>
<path fill="none" stroke="black" d="M327,-114C327,-114 373,-114 373,-114 379,-114 385,-120 385,-126 385,-126 385,-177 385,-177 385,-183 379,-189 373,-189 373,-189 327,-189 327,-189 321,-189 315,-183 315,-177 315,-177 315,-126 315,-126 315,-120 321,-114 327,-114"/>
<text text-anchor="middle" x="350" y="-173.8" font-family="Times,serif" font-size="14.00">www</text>
</g>
<g id="clust17" class="cluster"><title>cluster/home/s10425</title>
<path fill="none" stroke="black" d="M414,-167C414,-167 476,-167 476,-167 482,-167 488,-173 488,-179 488,-179 488,-269 488,-269 488,-275 482,-281 476,-281 476,-281 414,-281 414,-281 408,-281 402,-275 402,-269 402,-269 402,-179 402,-179 402,-173 408,-167 414,-167"/>
<text text-anchor="middle" x="445" y="-265.8" font-family="Times,serif" font-size="14.00">s10425</text>
</g>
<g id="clust18" class="cluster"><title>cluster/home/s10425/www</title>
<path fill="none" stroke="black" d="M422,-175C422,-175 468,-175 468,-175 474,-175 480,-181 480,-187 480,-187 480,-238 480,-238 480,-244 474,-250 468,-250 468,-250 422,-250 422,-250 416,-250 410,-244 410,-238 410,-238 410,-187 410,-187 410,-181 416,-175 422,-175"/>
<text text-anchor="middle" x="445" y="-234.8" font-family="Times,serif" font-size="14.00">www</text>
</g>
<g id="clust19" class="cluster"><title>cluster/home/s10421</title>
<path fill="none" stroke="black" d="M319,-228C319,-228 381,-228 381,-228 387,-228 393,-234 393,-240 393,-240 393,-330 393,-330 393,-336 387,-342 381,-342 381,-342 319,-342 319,-342 313,-342 307,-336 307,-330 307,-330 307,-240 307,-240 307,-234 313,-228 319,-228"/>
<text text-anchor="middle" x="350" y="-326.8" font-family="Times,serif" font-size="14.00">s10421</text>
</g>
<g id="clust20" class="cluster"><title>cluster/home/s10421/www</title>
<path fill="none" stroke="black" d="M327,-236C327,-236 373,-236 373,-236 379,-236 385,-242 385,-248 385,-248 385,-299 385,-299 385,-305 379,-311 373,-311 373,-311 327,-311 327,-311 321,-311 315,-305 315,-299 315,-299 315,-248 315,-248 315,-242 321,-236 327,-236"/>
<text text-anchor="middle" x="350" y="-295.8" font-family="Times,serif" font-size="14.00">www</text>
</g>
<g id="clust21" class="cluster"><title>cluster/home/s10422</title>
<path fill="none" stroke="black" d="M318,-350C318,-350 382,-350 382,-350 388,-350 394,-356 394,-362 394,-362 394,-452 394,-452 394,-458 388,-464 382,-464 382,-464 318,-464 318,-464 312,-464 306,-458 306,-452 306,-452 306,-362 306,-362 306,-356 312,-350 318,-350"/>
<text text-anchor="middle" x="350" y="-448.8" font-family="Times,serif" font-size="14.00">s10422</text>
</g>
<g id="clust22" class="cluster"><title>cluster/home/s10422/www</title>
<path fill="none" stroke="black" d="M326,-358C326,-358 374,-358 374,-358 380,-358 386,-364 386,-370 386,-370 386,-421 386,-421 386,-427 380,-433 374,-433 374,-433 326,-433 326,-433 320,-433 314,-427 314,-421 314,-421 314,-370 314,-370 314,-364 320,-358 326,-358"/>
<text text-anchor="middle" x="350" y="-417.8" font-family="Times,serif" font-size="14.00">www</text>
</g>
<g id="clust23" class="cluster"><title>cluster/home/s10424</title>
<path fill="none" stroke="black" d="M414,-289C414,-289 476,-289 476,-289 482,-289 488,-295 488,-301 488,-301 488,-391 488,-391 488,-397 482,-403 476,-403 476,-403 414,-403 414,-403 408,-403 402,-397 402,-391 402,-391 402,-301 402,-301 402,-295 408,-289 414,-289"/>
<text text-anchor="middle" x="445" y="-387.8" font-family="Times,serif" font-size="14.00">s10424</text>
</g>
<g id="clust24" class="cluster"><title>cluster/home/s10424/www</title>
<path fill="none" stroke="black" d="M422,-297C422,-297 468,-297 468,-297 474,-297 480,-303 480,-309 480,-309 480,-360 480,-360 480,-366 474,-372 468,-372 468,-372 422,-372 422,-372 416,-372 410,-366 410,-360 410,-360 410,-309 410,-309 410,-303 416,-297 422,-297"/>
<text text-anchor="middle" x="445" y="-356.8" font-family="Times,serif" font-size="14.00">www</text>
</g>
<!-- /var/log/cups/error -->
<g id="node1" class="node"><title>/var/log/cups/error</title>
<polygon fill="none" stroke="blue" points="97,-487 49,-487 49,-451 103,-451 103,-481 97,-487"/>
<polyline fill="none" stroke="blue" points="97,-487 97,-481 "/>
<polyline fill="none" stroke="blue" points="103,-481 97,-481 "/>
<text text-anchor="middle" x="76" y="-465.3" font-family="Times,serif" font-size="14.00" fill="blue">error</text>
</g>
<!-- /var/log/squid/store.log -->
<g id="node2" class="node"><title>/var/log/squid/store.log</title>
<polygon fill="none" stroke="blue" points="102,-404 44,-404 44,-368 108,-368 108,-398 102,-404"/>
<polyline fill="none" stroke="blue" points="102,-404 102,-398 "/>
<polyline fill="none" stroke="blue" points="108,-398 102,-398 "/>
<text text-anchor="middle" x="76" y="-382.3" font-family="Times,serif" font-size="14.00" fill="blue">store.log</text>
</g>
<!-- /home/ckhung/www/b/re/intro.php -->
<g id="node9" class="node"><title>/home/ckhung/www/b/re/intro.php</title>
<polygon fill="none" stroke="blue" points="252,-280 192,-280 192,-244 258,-244 258,-274 252,-280"/>
<polyline fill="none" stroke="blue" points="252,-280 252,-274 "/>
<polyline fill="none" stroke="blue" points="258,-274 252,-274 "/>
<text text-anchor="middle" x="225" y="-258.3" font-family="Times,serif" font-size="14.00" fill="blue">intro.php</text>
</g>
<!-- /var/log/squid/store.log&#45;&gt;/home/ckhung/www/b/re/intro.php -->
<!-- /var/log/apache2/error.log -->
<g id="node3" class="node"><title>/var/log/apache2/error.log</title>
<polygon fill="none" stroke="blue" points="102,-321 44,-321 44,-285 108,-285 108,-315 102,-321"/>
<polyline fill="none" stroke="blue" points="102,-321 102,-315 "/>
<polyline fill="none" stroke="blue" points="108,-315 102,-315 "/>
<text text-anchor="middle" x="76" y="-299.3" font-family="Times,serif" font-size="14.00" fill="blue">error.log</text>
</g>
<!-- /var/log/apache2/access.log -->
<g id="node4" class="node"><title>/var/log/apache2/access.log</title>
<polygon fill="none" stroke="blue" points="106,-267 40,-267 40,-231 112,-231 112,-261 106,-267"/>
<polyline fill="none" stroke="blue" points="106,-267 106,-261 "/>
<polyline fill="none" stroke="blue" points="112,-261 106,-261 "/>
<text text-anchor="middle" x="76" y="-245.3" font-family="Times,serif" font-size="14.00" fill="blue">access.log</text>
</g>
<!-- /etc/shadow -->
<g id="node5" class="node"><title>/etc/shadow</title>
<polygon fill="none" stroke="blue" points="99,-168 47,-168 47,-132 105,-132 105,-162 99,-168"/>
<polyline fill="none" stroke="blue" points="99,-168 99,-162 "/>
<polyline fill="none" stroke="blue" points="105,-162 99,-162 "/>
<text text-anchor="middle" x="76" y="-146.3" font-family="Times,serif" font-size="14.00" fill="blue">shadow</text>
</g>
<!-- /etc/resolv.conf -->
<g id="node6" class="node"><title>/etc/resolv.conf</title>
<polygon fill="none" stroke="blue" points="108.5,-114 37.5,-114 37.5,-78 114.5,-78 114.5,-108 108.5,-114"/>
<polyline fill="none" stroke="blue" points="108.5,-114 108.5,-108 "/>
<polyline fill="none" stroke="blue" points="114.5,-108 108.5,-108 "/>
<text text-anchor="middle" x="76" y="-92.3" font-family="Times,serif" font-size="14.00" fill="blue">resolv.conf</text>
</g>
<!-- /etc/passwd -->
<g id="node7" class="node"><title>/etc/passwd</title>
<polygon fill="none" stroke="blue" points="98,-60 48,-60 48,-24 104,-24 104,-54 98,-60"/>
<polyline fill="none" stroke="blue" points="98,-60 98,-54 "/>
<polyline fill="none" stroke="blue" points="104,-54 98,-54 "/>
<text text-anchor="middle" x="76" y="-38.3" font-family="Times,serif" font-size="14.00" fill="blue">passwd</text>
</g>
<!-- /etc/passwd&#45;&gt;/home/ckhung/www/b/re/intro.php -->
<!-- /home/ckhung/www/b/pl/idiom.php -->
<g id="node8" class="node"><title>/home/ckhung/www/b/pl/idiom.php</title>
<polygon fill="none" stroke="blue" points="255.5,-363 188.5,-363 188.5,-327 261.5,-327 261.5,-357 255.5,-363"/>
<polyline fill="none" stroke="blue" points="255.5,-363 255.5,-357 "/>
<polyline fill="none" stroke="blue" points="261.5,-357 255.5,-357 "/>
<text text-anchor="middle" x="225" y="-341.3" font-family="Times,serif" font-size="14.00" fill="blue">idiom.php</text>
</g>
<!-- /home/s10423/www/qz3.sh -->
<g id="node12" class="node"><title>/home/s10423/www/qz3.sh</title>
<polygon fill="none" stroke="blue" points="371,-158 323,-158 323,-122 377,-122 377,-152 371,-158"/>
<polyline fill="none" stroke="blue" points="371,-158 371,-152 "/>
<polyline fill="none" stroke="blue" points="377,-152 371,-152 "/>
<text text-anchor="middle" x="350" y="-136.3" font-family="Times,serif" font-size="14.00" fill="blue">qz3.sh</text>
</g>
<!-- /home/ckhung/www/b/re/intro.php&#45;&gt;/home/s10423/www/qz3.sh -->
<!-- /home/s10421/www/ex1.sh -->
<g id="node14" class="node"><title>/home/s10421/www/ex1.sh</title>
<polygon fill="none" stroke="blue" points="371,-280 323,-280 323,-244 377,-244 377,-274 371,-280"/>
<polyline fill="none" stroke="blue" points="371,-280 371,-274 "/>
<polyline fill="none" stroke="blue" points="377,-274 371,-274 "/>
<text text-anchor="middle" x="350" y="-258.3" font-family="Times,serif" font-size="14.00" fill="blue">ex1.sh</text>
</g>
<!-- /home/ckhung/www/b/re/intro.php&#45;&gt;/home/s10421/www/ex1.sh -->
<!-- /home/s10422/www/hw2.sh -->
<g id="node15" class="node"><title>/home/s10422/www/hw2.sh</title>
<polygon fill="none" stroke="blue" points="372,-402 322,-402 322,-366 378,-366 378,-396 372,-402"/>
<polyline fill="none" stroke="blue" points="372,-402 372,-396 "/>
<polyline fill="none" stroke="blue" points="378,-396 372,-396 "/>
<text text-anchor="middle" x="350" y="-380.3" font-family="Times,serif" font-size="14.00" fill="blue">hw2.sh</text>
</g>
<!-- /home/ckhung/www/b/re/intro.php&#45;&gt;/home/s10422/www/hw2.sh -->
<!-- /home/ckhung/www/b/js/console.php -->
<g id="node10" class="node"><title>/home/ckhung/www/b/js/console.php</title>
<polygon fill="none" stroke="blue" points="260,-197 184,-197 184,-161 266,-161 266,-191 260,-197"/>
<polyline fill="none" stroke="blue" points="260,-197 260,-191 "/>
<polyline fill="none" stroke="blue" points="266,-191 260,-191 "/>
<text text-anchor="middle" x="225" y="-175.3" font-family="Times,serif" font-size="14.00" fill="blue">console.php</text>
</g>
<!-- /home/ckhung/www/index.php -->
<g id="node11" class="node"><title>/home/ckhung/www/index.php</title>
<polygon fill="none" stroke="blue" points="254.5,-137 189.5,-137 189.5,-101 260.5,-101 260.5,-131 254.5,-137"/>
<polyline fill="none" stroke="blue" points="254.5,-137 254.5,-131 "/>
<polyline fill="none" stroke="blue" points="260.5,-131 254.5,-131 "/>
<text text-anchor="middle" x="225" y="-115.3" font-family="Times,serif" font-size="14.00" fill="blue">index.php</text>
</g>
<!-- /home/s10425/www/ts5.sh -->
<g id="node13" class="node"><title>/home/s10425/www/ts5.sh</title>
<polygon fill="none" stroke="blue" points="466,-219 418,-219 418,-183 472,-183 472,-213 466,-219"/>
<polyline fill="none" stroke="blue" points="466,-219 466,-213 "/>
<polyline fill="none" stroke="blue" points="472,-213 466,-213 "/>
<text text-anchor="middle" x="445" y="-197.3" font-family="Times,serif" font-size="14.00" fill="blue">ts5.sh</text>
</g>
<!-- /home/s10421/www/ex1.sh&#45;&gt;/home/s10425/www/ts5.sh -->
<!-- /home/s10424/www/pr4.sh -->
<g id="node16" class="node"><title>/home/s10424/www/pr4.sh</title>
<polygon fill="none" stroke="blue" points="466,-341 418,-341 418,-305 472,-305 472,-335 466,-341"/>
<polyline fill="none" stroke="blue" points="466,-341 466,-335 "/>
<polyline fill="none" stroke="blue" points="472,-335 466,-335 "/>
<text text-anchor="middle" x="445" y="-319.3" font-family="Times,serif" font-size="14.00" fill="blue">pr4.sh</text>
</g>
<!-- /home/s10421/www/ex1.sh&#45;&gt;/home/s10424/www/pr4.sh -->
</g>
</svg>
