<?xml version="1.0" encoding="UTF-8" standalone="no"?>
<!DOCTYPE svg PUBLIC "-//W3C//DTD SVG 1.1//EN"
 "http://www.w3.org/Graphics/SVG/1.1/DTD/svg11.dtd">
<!-- Generated by graphviz version 2.38.0 (20140413.2041)
 -->
<!-- Title: G Pages: 1 -->
<svg width="520pt" height="627pt"
 viewBox="0.00 0.00 520.00 627.00" xmlns="http://www.w3.org/2000/svg" xmlns:xlink="http://www.w3.org/1999/xlink">
<g id="graph0" class="graph" transform="scale(1 1) rotate(0) translate(4 623)">
<title>G</title>
<polygon fill="white" stroke="none" points="-4,4 -4,-623 516,-623 516,4 -4,4"/>
<g id="clust1" class="cluster"><title>cluster</title>
<path fill="none" stroke="black" d="M20,-8C20,-8 492,-8 492,-8 498,-8 504,-14 504,-20 504,-20 504,-599 504,-599 504,-605 498,-611 492,-611 492,-611 20,-611 20,-611 14,-611 8,-605 8,-599 8,-599 8,-20 8,-20 8,-14 14,-8 20,-8"/>
<text text-anchor="middle" x="256" y="-595.8" font-family="Times,serif" font-size="14.00">/</text>
</g>
<g id="clust2" class="cluster"><title>cluster_etc</title>
<path fill="none" stroke="black" d="M41.5,-397C41.5,-397 110.5,-397 110.5,-397 116.5,-397 122.5,-403 122.5,-409 122.5,-409 122.5,-568 122.5,-568 122.5,-574 116.5,-580 110.5,-580 110.5,-580 41.5,-580 41.5,-580 35.5,-580 29.5,-574 29.5,-568 29.5,-568 29.5,-409 29.5,-409 29.5,-403 35.5,-397 41.5,-397"/>
<text text-anchor="middle" x="76" y="-564.8" font-family="Times,serif" font-size="14.00">etc</text>
</g>
<g id="clust3" class="cluster"><title>cluster_var</title>
<path fill="none" stroke="black" d="M28,-16C28,-16 124,-16 124,-16 130,-16 136,-22 136,-28 136,-28 136,-377 136,-377 136,-383 130,-389 124,-389 124,-389 28,-389 28,-389 22,-389 16,-383 16,-377 16,-377 16,-28 16,-28 16,-22 22,-16 28,-16"/>
<text text-anchor="middle" x="76" y="-373.8" font-family="Times,serif" font-size="14.00">var</text>
</g>
<g id="clust4" class="cluster"><title>cluster_var_log</title>
<path fill="none" stroke="black" d="M36,-24C36,-24 116,-24 116,-24 122,-24 128,-30 128,-36 128,-36 128,-346 128,-346 128,-352 122,-358 116,-358 116,-358 36,-358 36,-358 30,-358 24,-352 24,-346 24,-346 24,-36 24,-36 24,-30 30,-24 36,-24"/>
<text text-anchor="middle" x="76" y="-342.8" font-family="Times,serif" font-size="14.00">log</text>
</g>
<g id="clust5" class="cluster"><title>cluster_var_log_apache2</title>
<path fill="none" stroke="black" d="M44,-198C44,-198 108,-198 108,-198 114,-198 120,-204 120,-210 120,-210 120,-315 120,-315 120,-321 114,-327 108,-327 108,-327 44,-327 44,-327 38,-327 32,-321 32,-315 32,-315 32,-210 32,-210 32,-204 38,-198 44,-198"/>
<text text-anchor="middle" x="76" y="-311.8" font-family="Times,serif" font-size="14.00">apache2</text>
</g>
<g id="clust6" class="cluster"><title>cluster_var_log_cups</title>
<path fill="none" stroke="black" d="M53,-115C53,-115 99,-115 99,-115 105,-115 111,-121 111,-127 111,-127 111,-178 111,-178 111,-184 105,-190 99,-190 99,-190 53,-190 53,-190 47,-190 41,-184 41,-178 41,-178 41,-127 41,-127 41,-121 47,-115 53,-115"/>
<text text-anchor="middle" x="76" y="-174.8" font-family="Times,serif" font-size="14.00">cups</text>
</g>
<g id="clust7" class="cluster"><title>cluster_var_log_squid</title>
<path fill="none" stroke="black" d="M48,-32C48,-32 104,-32 104,-32 110,-32 116,-38 116,-44 116,-44 116,-95 116,-95 116,-101 110,-107 104,-107 104,-107 48,-107 48,-107 42,-107 36,-101 36,-95 36,-95 36,-44 36,-44 36,-38 42,-32 48,-32"/>
<text text-anchor="middle" x="76" y="-91.8" font-family="Times,serif" font-size="14.00">squid</text>
</g>
<g id="clust8" class="cluster"><title>cluster_home</title>
<path fill="none" stroke="black" d="M156,-77C156,-77 484,-77 484,-77 490,-77 496,-83 496,-89 496,-89 496,-506 496,-506 496,-512 490,-518 484,-518 484,-518 156,-518 156,-518 150,-518 144,-512 144,-506 144,-506 144,-89 144,-89 144,-83 150,-77 156,-77"/>
<text text-anchor="middle" x="320" y="-502.8" font-family="Times,serif" font-size="14.00">home</text>
</g>
<g id="clust9" class="cluster"><title>cluster_home_s10422</title>
<path fill="none" stroke="black" d="M318,-106C318,-106 382,-106 382,-106 388,-106 394,-112 394,-118 394,-118 394,-208 394,-208 394,-214 388,-220 382,-220 382,-220 318,-220 318,-220 312,-220 306,-214 306,-208 306,-208 306,-118 306,-118 306,-112 312,-106 318,-106"/>
<text text-anchor="middle" x="350" y="-204.8" font-family="Times,serif" font-size="14.00">s10422</text>
</g>
<g id="clust10" class="cluster"><title>cluster_home_s10422_www</title>
<path fill="none" stroke="black" d="M326,-114C326,-114 374,-114 374,-114 380,-114 386,-120 386,-126 386,-126 386,-177 386,-177 386,-183 380,-189 374,-189 374,-189 326,-189 326,-189 320,-189 314,-183 314,-177 314,-177 314,-126 314,-126 314,-120 320,-114 326,-114"/>
<text text-anchor="middle" x="350" y="-173.8" font-family="Times,serif" font-size="14.00">www</text>
</g>
<g id="clust11" class="cluster"><title>cluster_home_s10423</title>
<path fill="none" stroke="black" d="M319,-228C319,-228 381,-228 381,-228 387,-228 393,-234 393,-240 393,-240 393,-330 393,-330 393,-336 387,-342 381,-342 381,-342 319,-342 319,-342 313,-342 307,-336 307,-330 307,-330 307,-240 307,-240 307,-234 313,-228 319,-228"/>
<text text-anchor="middle" x="350" y="-326.8" font-family="Times,serif" font-size="14.00">s10423</text>
</g>
<g id="clust12" class="cluster"><title>cluster_home_s10423_www</title>
<path fill="none" stroke="black" d="M327,-236C327,-236 373,-236 373,-236 379,-236 385,-242 385,-248 385,-248 385,-299 385,-299 385,-305 379,-311 373,-311 373,-311 327,-311 327,-311 321,-311 315,-305 315,-299 315,-299 315,-248 315,-248 315,-242 321,-236 327,-236"/>
<text text-anchor="middle" x="350" y="-295.8" font-family="Times,serif" font-size="14.00">www</text>
</g>
<g id="clust13" class="cluster"><title>cluster_home_s10421</title>
<path fill="none" stroke="black" d="M319,-350C319,-350 381,-350 381,-350 387,-350 393,-356 393,-362 393,-362 393,-452 393,-452 393,-458 387,-464 381,-464 381,-464 319,-464 319,-464 313,-464 307,-458 307,-452 307,-452 307,-362 307,-362 307,-356 313,-350 319,-350"/>
<text text-anchor="middle" x="350" y="-448.8" font-family="Times,serif" font-size="14.00">s10421</text>
</g>
<g id="clust14" class="cluster"><title>cluster_home_s10421_www</title>
<path fill="none" stroke="black" d="M327,-358C327,-358 373,-358 373,-358 379,-358 385,-364 385,-370 385,-370 385,-421 385,-421 385,-427 379,-433 373,-433 373,-433 327,-433 327,-433 321,-433 315,-427 315,-421 315,-421 315,-370 315,-370 315,-364 321,-358 327,-358"/>
<text text-anchor="middle" x="350" y="-417.8" font-family="Times,serif" font-size="14.00">www</text>
</g>
<g id="clust15" class="cluster"><title>cluster_home_s10425</title>
<path fill="none" stroke="black" d="M414,-239C414,-239 476,-239 476,-239 482,-239 488,-245 488,-251 488,-251 488,-341 488,-341 488,-347 482,-353 476,-353 476,-353 414,-353 414,-353 408,-353 402,-347 402,-341 402,-341 402,-251 402,-251 402,-245 408,-239 414,-239"/>
<text text-anchor="middle" x="445" y="-337.8" font-family="Times,serif" font-size="14.00">s10425</text>
</g>
<g id="clust16" class="cluster"><title>cluster_home_s10425_www</title>
<path fill="none" stroke="black" d="M422,-247C422,-247 468,-247 468,-247 474,-247 480,-253 480,-259 480,-259 480,-310 480,-310 480,-316 474,-322 468,-322 468,-322 422,-322 422,-322 416,-322 410,-316 410,-310 410,-310 410,-259 410,-259 410,-253 416,-247 422,-247"/>
<text text-anchor="middle" x="445" y="-306.8" font-family="Times,serif" font-size="14.00">www</text>
</g>
<g id="clust17" class="cluster"><title>cluster_home_s10424</title>
<path fill="none" stroke="black" d="M414,-361C414,-361 476,-361 476,-361 482,-361 488,-367 488,-373 488,-373 488,-463 488,-463 488,-469 482,-475 476,-475 476,-475 414,-475 414,-475 408,-475 402,-469 402,-463 402,-463 402,-373 402,-373 402,-367 408,-361 414,-361"/>
<text text-anchor="middle" x="445" y="-459.8" font-family="Times,serif" font-size="14.00">s10424</text>
</g>
<g id="clust18" class="cluster"><title>cluster_home_s10424_www</title>
<path fill="none" stroke="black" d="M422,-369C422,-369 468,-369 468,-369 474,-369 480,-375 480,-381 480,-381 480,-432 480,-432 480,-438 474,-444 468,-444 468,-444 422,-444 422,-444 416,-444 410,-438 410,-432 410,-432 410,-381 410,-381 410,-375 416,-369 422,-369"/>
<text text-anchor="middle" x="445" y="-428.8" font-family="Times,serif" font-size="14.00">www</text>
</g>
<g id="clust19" class="cluster"><title>cluster_home_ckhung</title>
<path fill="none" stroke="black" d="M164,-85C164,-85 286,-85 286,-85 292,-85 298,-91 298,-97 298,-97 298,-475 298,-475 298,-481 292,-487 286,-487 286,-487 164,-487 164,-487 158,-487 152,-481 152,-475 152,-475 152,-97 152,-97 152,-91 158,-85 164,-85"/>
<text text-anchor="middle" x="225" y="-471.8" font-family="Times,serif" font-size="14.00">ckhung</text>
</g>
<g id="clust20" class="cluster"><title>cluster_home_ckhung_www</title>
<path fill="none" stroke="black" d="M172,-93C172,-93 278,-93 278,-93 284,-93 290,-99 290,-105 290,-105 290,-444 290,-444 290,-450 284,-456 278,-456 278,-456 172,-456 172,-456 166,-456 160,-450 160,-444 160,-444 160,-105 160,-105 160,-99 166,-93 172,-93"/>
<text text-anchor="middle" x="225" y="-440.8" font-family="Times,serif" font-size="14.00">www</text>
</g>
<g id="clust21" class="cluster"><title>cluster_home_ckhung_www_b</title>
<path fill="none" stroke="black" d="M180,-145C180,-145 270,-145 270,-145 276,-145 282,-151 282,-157 282,-157 282,-413 282,-413 282,-419 276,-425 270,-425 270,-425 180,-425 180,-425 174,-425 168,-419 168,-413 168,-413 168,-157 168,-157 168,-151 174,-145 180,-145"/>
<text text-anchor="middle" x="225" y="-409.8" font-family="Times,serif" font-size="14.00">b</text>
</g>
<g id="clust22" class="cluster"><title>cluster_home_ckhung_www_b_pl</title>
<path fill="none" stroke="black" d="M192.5,-319C192.5,-319 257.5,-319 257.5,-319 263.5,-319 269.5,-325 269.5,-331 269.5,-331 269.5,-382 269.5,-382 269.5,-388 263.5,-394 257.5,-394 257.5,-394 192.5,-394 192.5,-394 186.5,-394 180.5,-388 180.5,-382 180.5,-382 180.5,-331 180.5,-331 180.5,-325 186.5,-319 192.5,-319"/>
<text text-anchor="middle" x="225" y="-378.8" font-family="Times,serif" font-size="14.00">pl</text>
</g>
<g id="clust23" class="cluster"><title>cluster_home_ckhung_www_b_re</title>
<path fill="none" stroke="black" d="M196,-236C196,-236 254,-236 254,-236 260,-236 266,-242 266,-248 266,-248 266,-299 266,-299 266,-305 260,-311 254,-311 254,-311 196,-311 196,-311 190,-311 184,-305 184,-299 184,-299 184,-248 184,-248 184,-242 190,-236 196,-236"/>
<text text-anchor="middle" x="225" y="-295.8" font-family="Times,serif" font-size="14.00">re</text>
</g>
<g id="clust24" class="cluster"><title>cluster_home_ckhung_www_b_js</title>
<path fill="none" stroke="black" d="M188,-153C188,-153 262,-153 262,-153 268,-153 274,-159 274,-165 274,-165 274,-216 274,-216 274,-222 268,-228 262,-228 262,-228 188,-228 188,-228 182,-228 176,-222 176,-216 176,-216 176,-165 176,-165 176,-159 182,-153 188,-153"/>
<text text-anchor="middle" x="225" y="-212.8" font-family="Times,serif" font-size="14.00">js</text>
</g>
<!-- _etc_shadow -->
<g id="node1" class="node"><title>_etc_shadow</title>
<polygon fill="none" stroke="blue" points="99,-549 47,-549 47,-513 105,-513 105,-543 99,-549"/>
<polyline fill="none" stroke="blue" points="99,-549 99,-543 "/>
<polyline fill="none" stroke="blue" points="105,-543 99,-543 "/>
<text text-anchor="middle" x="76" y="-527.3" font-family="Times,serif" font-size="14.00" fill="blue">shadow</text>
</g>
<!-- _etc_passwd -->
<g id="node2" class="node"><title>_etc_passwd</title>
<polygon fill="none" stroke="blue" points="98,-495 48,-495 48,-459 104,-459 104,-489 98,-495"/>
<polyline fill="none" stroke="blue" points="98,-495 98,-489 "/>
<polyline fill="none" stroke="blue" points="104,-489 98,-489 "/>
<text text-anchor="middle" x="76" y="-473.3" font-family="Times,serif" font-size="14.00" fill="blue">passwd</text>
</g>
<!-- _home_ckhung_www_b_re_intro.php -->
<g id="node15" class="node"><title>_home_ckhung_www_b_re_intro.php</title>
<polygon fill="none" stroke="blue" points="252,-280 192,-280 192,-244 258,-244 258,-274 252,-280"/>
<polyline fill="none" stroke="blue" points="252,-280 252,-274 "/>
<polyline fill="none" stroke="blue" points="258,-274 252,-274 "/>
<text text-anchor="middle" x="225" y="-258.3" font-family="Times,serif" font-size="14.00" fill="blue">intro.php</text>
</g>
<!-- _etc_passwd&#45;&gt;_home_ckhung_www_b_re_intro.php -->
<!-- _etc_resolv.conf -->
<g id="node3" class="node"><title>_etc_resolv.conf</title>
<polygon fill="none" stroke="blue" points="108.5,-441 37.5,-441 37.5,-405 114.5,-405 114.5,-435 108.5,-441"/>
<polyline fill="none" stroke="blue" points="108.5,-441 108.5,-435 "/>
<polyline fill="none" stroke="blue" points="114.5,-435 108.5,-435 "/>
<text text-anchor="middle" x="76" y="-419.3" font-family="Times,serif" font-size="14.00" fill="blue">resolv.conf</text>
</g>
<!-- _var_log_apache2_access.log -->
<g id="node4" class="node"><title>_var_log_apache2_access.log</title>
<polygon fill="none" stroke="blue" points="106,-296 40,-296 40,-260 112,-260 112,-290 106,-296"/>
<polyline fill="none" stroke="blue" points="106,-296 106,-290 "/>
<polyline fill="none" stroke="blue" points="112,-290 106,-290 "/>
<text text-anchor="middle" x="76" y="-274.3" font-family="Times,serif" font-size="14.00" fill="blue">access.log</text>
</g>
<!-- _var_log_apache2_error.log -->
<g id="node5" class="node"><title>_var_log_apache2_error.log</title>
<polygon fill="none" stroke="blue" points="102,-242 44,-242 44,-206 108,-206 108,-236 102,-242"/>
<polyline fill="none" stroke="blue" points="102,-242 102,-236 "/>
<polyline fill="none" stroke="blue" points="108,-236 102,-236 "/>
<text text-anchor="middle" x="76" y="-220.3" font-family="Times,serif" font-size="14.00" fill="blue">error.log</text>
</g>
<!-- _var_log_cups_error -->
<g id="node6" class="node"><title>_var_log_cups_error</title>
<polygon fill="none" stroke="blue" points="97,-159 49,-159 49,-123 103,-123 103,-153 97,-159"/>
<polyline fill="none" stroke="blue" points="97,-159 97,-153 "/>
<polyline fill="none" stroke="blue" points="103,-153 97,-153 "/>
<text text-anchor="middle" x="76" y="-137.3" font-family="Times,serif" font-size="14.00" fill="blue">error</text>
</g>
<!-- _var_log_squid_store.log -->
<g id="node7" class="node"><title>_var_log_squid_store.log</title>
<polygon fill="none" stroke="blue" points="102,-76 44,-76 44,-40 108,-40 108,-70 102,-76"/>
<polyline fill="none" stroke="blue" points="102,-76 102,-70 "/>
<polyline fill="none" stroke="blue" points="108,-70 102,-70 "/>
<text text-anchor="middle" x="76" y="-54.3" font-family="Times,serif" font-size="14.00" fill="blue">store.log</text>
</g>
<!-- _var_log_squid_store.log&#45;&gt;_home_ckhung_www_b_re_intro.php -->
<!-- _home_s10422_www_hw2.sh -->
<g id="node8" class="node"><title>_home_s10422_www_hw2.sh</title>
<polygon fill="none" stroke="blue" points="372,-158 322,-158 322,-122 378,-122 378,-152 372,-158"/>
<polyline fill="none" stroke="blue" points="372,-158 372,-152 "/>
<polyline fill="none" stroke="blue" points="378,-152 372,-152 "/>
<text text-anchor="middle" x="350" y="-136.3" font-family="Times,serif" font-size="14.00" fill="blue">hw2.sh</text>
</g>
<!-- _home_s10423_www_qz3.sh -->
<g id="node9" class="node"><title>_home_s10423_www_qz3.sh</title>
<polygon fill="none" stroke="blue" points="371,-280 323,-280 323,-244 377,-244 377,-274 371,-280"/>
<polyline fill="none" stroke="blue" points="371,-280 371,-274 "/>
<polyline fill="none" stroke="blue" points="377,-274 371,-274 "/>
<text text-anchor="middle" x="350" y="-258.3" font-family="Times,serif" font-size="14.00" fill="blue">qz3.sh</text>
</g>
<!-- _home_s10421_www_ex1.sh -->
<g id="node10" class="node"><title>_home_s10421_www_ex1.sh</title>
<polygon fill="none" stroke="blue" points="371,-402 323,-402 323,-366 377,-366 377,-396 371,-402"/>
<polyline fill="none" stroke="blue" points="371,-402 371,-396 "/>
<polyline fill="none" stroke="blue" points="377,-396 371,-396 "/>
<text text-anchor="middle" x="350" y="-380.3" font-family="Times,serif" font-size="14.00" fill="blue">ex1.sh</text>
</g>
<!-- _home_s10425_www_ts5.sh -->
<g id="node11" class="node"><title>_home_s10425_www_ts5.sh</title>
<polygon fill="none" stroke="blue" points="466,-291 418,-291 418,-255 472,-255 472,-285 466,-291"/>
<polyline fill="none" stroke="blue" points="466,-291 466,-285 "/>
<polyline fill="none" stroke="blue" points="472,-285 466,-285 "/>
<text text-anchor="middle" x="445" y="-269.3" font-family="Times,serif" font-size="14.00" fill="blue">ts5.sh</text>
</g>
<!-- _home_s10421_www_ex1.sh&#45;&gt;_home_s10425_www_ts5.sh -->
<!-- _home_s10424_www_pr4.sh -->
<g id="node12" class="node"><title>_home_s10424_www_pr4.sh</title>
<polygon fill="none" stroke="blue" points="466,-413 418,-413 418,-377 472,-377 472,-407 466,-413"/>
<polyline fill="none" stroke="blue" points="466,-413 466,-407 "/>
<polyline fill="none" stroke="blue" points="472,-407 466,-407 "/>
<text text-anchor="middle" x="445" y="-391.3" font-family="Times,serif" font-size="14.00" fill="blue">pr4.sh</text>
</g>
<!-- _home_s10421_www_ex1.sh&#45;&gt;_home_s10424_www_pr4.sh -->
<!-- _home_ckhung_www_index.php -->
<g id="node13" class="node"><title>_home_ckhung_www_index.php</title>
<polygon fill="none" stroke="blue" points="254.5,-137 189.5,-137 189.5,-101 260.5,-101 260.5,-131 254.5,-137"/>
<polyline fill="none" stroke="blue" points="254.5,-137 254.5,-131 "/>
<polyline fill="none" stroke="blue" points="260.5,-131 254.5,-131 "/>
<text text-anchor="middle" x="225" y="-115.3" font-family="Times,serif" font-size="14.00" fill="blue">index.php</text>
</g>
<!-- _home_ckhung_www_b_pl_idiom.php -->
<g id="node14" class="node"><title>_home_ckhung_www_b_pl_idiom.php</title>
<polygon fill="none" stroke="blue" points="255.5,-363 188.5,-363 188.5,-327 261.5,-327 261.5,-357 255.5,-363"/>
<polyline fill="none" stroke="blue" points="255.5,-363 255.5,-357 "/>
<polyline fill="none" stroke="blue" points="261.5,-357 255.5,-357 "/>
<text text-anchor="middle" x="225" y="-341.3" font-family="Times,serif" font-size="14.00" fill="blue">idiom.php</text>
</g>
<!-- _home_ckhung_www_b_re_intro.php&#45;&gt;_home_s10422_www_hw2.sh -->
<!-- _home_ckhung_www_b_re_intro.php&#45;&gt;_home_s10423_www_qz3.sh -->
<!-- _home_ckhung_www_b_re_intro.php&#45;&gt;_home_s10421_www_ex1.sh -->
<!-- _home_ckhung_www_b_js_console.php -->
<g id="node16" class="node"><title>_home_ckhung_www_b_js_console.php</title>
<polygon fill="none" stroke="blue" points="260,-197 184,-197 184,-161 266,-161 266,-191 260,-197"/>
<polyline fill="none" stroke="blue" points="260,-197 260,-191 "/>
<polyline fill="none" stroke="blue" points="266,-191 260,-191 "/>
<text text-anchor="middle" x="225" y="-175.3" font-family="Times,serif" font-size="14.00" fill="blue">console.php</text>
</g>
</g>
</svg>
