<?xml version="1.0" encoding="UTF-8" standalone="no"?>
<!DOCTYPE svg PUBLIC "-//W3C//DTD SVG 1.1//EN"
 "http://www.w3.org/Graphics/SVG/1.1/DTD/svg11.dtd">
<!-- Generated by graphviz version 2.38.0 (20140413.2041)
 -->
<!-- Title: G Pages: 1 -->
<svg width="446pt" height="515pt"
 viewBox="0.00 0.00 446.00 515.00" xmlns="http://www.w3.org/2000/svg" xmlns:xlink="http://www.w3.org/1999/xlink">
<g id="graph0" class="graph" transform="scale(1 1) rotate(0) translate(4 511)">
<title>G</title>
<polygon fill="white" stroke="none" points="-4,4 -4,-511 442,-511 442,4 -4,4"/>
<g id="clust1" class="cluster"><title>cluster</title>
<path fill="none" stroke="black" d="M20,-8C20,-8 418,-8 418,-8 424,-8 430,-14 430,-20 430,-20 430,-487 430,-487 430,-493 424,-499 418,-499 418,-499 20,-499 20,-499 14,-499 8,-493 8,-487 8,-487 8,-20 8,-20 8,-14 14,-8 20,-8"/>
<text text-anchor="middle" x="219" y="-483.8" font-family="Times,serif" font-size="14.00">/</text>
</g>
<g id="clust2" class="cluster"><title>cluster/home</title>
<path fill="none" stroke="black" d="M28,-16C28,-16 410,-16 410,-16 416,-16 422,-22 422,-28 422,-28 422,-456 422,-456 422,-462 416,-468 410,-468 410,-468 28,-468 28,-468 22,-468 16,-462 16,-456 16,-456 16,-28 16,-28 16,-22 22,-16 28,-16"/>
<text text-anchor="middle" x="219" y="-452.8" font-family="Times,serif" font-size="14.00">home</text>
</g>
<g id="clust3" class="cluster"><title>cluster/home/ckhung</title>
<path fill="none" stroke="black" d="M36,-24C36,-24 402,-24 402,-24 408,-24 414,-30 414,-36 414,-36 414,-425 414,-425 414,-431 408,-437 402,-437 402,-437 36,-437 36,-437 30,-437 24,-431 24,-425 24,-425 24,-36 24,-36 24,-30 30,-24 36,-24"/>
<text text-anchor="middle" x="219" y="-421.8" font-family="Times,serif" font-size="14.00">ckhung</text>
</g>
<g id="clust4" class="cluster"><title>cluster/home/ckhung/.gnupg</title>
<path fill="none" stroke="black" d="M180,-277C180,-277 255,-277 255,-277 261,-277 267,-283 267,-289 267,-289 267,-394 267,-394 267,-400 261,-406 255,-406 255,-406 180,-406 180,-406 174,-406 168,-400 168,-394 168,-394 168,-289 168,-289 168,-283 174,-277 180,-277"/>
<text text-anchor="middle" x="217.5" y="-390.8" font-family="Times,serif" font-size="14.00">.gnupg</text>
</g>
<g id="clust5" class="cluster"><title>cluster/home/ckhung/private</title>
<path fill="none" stroke="black" d="M44,-32C44,-32 148,-32 148,-32 154,-32 160,-38 160,-44 160,-44 160,-310 160,-310 160,-316 154,-322 148,-322 148,-322 44,-322 44,-322 38,-322 32,-316 32,-310 32,-310 32,-44 32,-44 32,-38 38,-32 44,-32"/>
<text text-anchor="middle" x="96" y="-306.8" font-family="Times,serif" font-size="14.00">private</text>
</g>
<g id="clust6" class="cluster"><title>cluster/home/ckhung/private/config</title>
<path fill="none" stroke="black" d="M52,-40C52,-40 140,-40 140,-40 146,-40 152,-46 152,-52 152,-52 152,-279 152,-279 152,-285 146,-291 140,-291 140,-291 52,-291 52,-291 46,-291 40,-285 40,-279 40,-279 40,-52 40,-52 40,-46 46,-40 52,-40"/>
<text text-anchor="middle" x="96" y="-275.8" font-family="Times,serif" font-size="14.00">config</text>
</g>
<g id="clust7" class="cluster"><title>cluster/home/ckhung/private/config/.ssh</title>
<path fill="none" stroke="black" d="M73,-48C73,-48 119,-48 119,-48 125,-48 131,-54 131,-60 131,-60 131,-165 131,-165 131,-171 125,-177 119,-177 119,-177 73,-177 73,-177 67,-177 61,-171 61,-165 61,-165 61,-60 61,-60 61,-54 67,-48 73,-48"/>
<text text-anchor="middle" x="96" y="-161.8" font-family="Times,serif" font-size="14.00">.ssh</text>
</g>
<g id="clust8" class="cluster"><title>cluster/home/ckhung/private/config/.gnupg</title>
<path fill="none" stroke="black" d="M60,-185C60,-185 132,-185 132,-185 138,-185 144,-191 144,-197 144,-197 144,-248 144,-248 144,-254 138,-260 132,-260 132,-260 60,-260 60,-260 54,-260 48,-254 48,-248 48,-248 48,-197 48,-197 48,-191 54,-185 60,-185"/>
<text text-anchor="middle" x="96" y="-244.8" font-family="Times,serif" font-size="14.00">.gnupg</text>
</g>
<g id="clust9" class="cluster"><title>cluster/home/ckhung/work</title>
<path fill="none" stroke="black" d="M287,-116C287,-116 394,-116 394,-116 400,-116 406,-122 406,-128 406,-128 406,-394 406,-394 406,-400 400,-406 394,-406 394,-406 287,-406 287,-406 281,-406 275,-400 275,-394 275,-394 275,-128 275,-128 275,-122 281,-116 287,-116"/>
<text text-anchor="middle" x="340.5" y="-390.8" font-family="Times,serif" font-size="14.00">work</text>
</g>
<g id="clust10" class="cluster"><title>cluster/home/ckhung/work/config</title>
<path fill="none" stroke="black" d="M295,-124C295,-124 386,-124 386,-124 392,-124 398,-130 398,-136 398,-136 398,-363 398,-363 398,-369 392,-375 386,-375 386,-375 295,-375 295,-375 289,-375 283,-369 283,-363 283,-363 283,-136 283,-136 283,-130 289,-124 295,-124"/>
<text text-anchor="middle" x="340.5" y="-359.8" font-family="Times,serif" font-size="14.00">config</text>
</g>
<g id="clust11" class="cluster"><title>cluster/home/ckhung/work/config/.gnupg</title>
<path fill="none" stroke="black" d="M303,-269C303,-269 378,-269 378,-269 384,-269 390,-275 390,-281 390,-281 390,-332 390,-332 390,-338 384,-344 378,-344 378,-344 303,-344 303,-344 297,-344 291,-338 291,-332 291,-332 291,-281 291,-281 291,-275 297,-269 303,-269"/>
<text text-anchor="middle" x="340.5" y="-328.8" font-family="Times,serif" font-size="14.00">.gnupg</text>
</g>
<g id="clust12" class="cluster"><title>cluster/home/ckhung/work/config/.ssh</title>
<path fill="none" stroke="black" d="M306.5,-132C306.5,-132 374.5,-132 374.5,-132 380.5,-132 386.5,-138 386.5,-144 386.5,-144 386.5,-249 386.5,-249 386.5,-255 380.5,-261 374.5,-261 374.5,-261 306.5,-261 306.5,-261 300.5,-261 294.5,-255 294.5,-249 294.5,-249 294.5,-144 294.5,-144 294.5,-138 300.5,-132 306.5,-132"/>
<text text-anchor="middle" x="340.5" y="-245.8" font-family="Times,serif" font-size="14.00">.ssh</text>
</g>
<g id="clust13" class="cluster"><title>cluster/home/ckhung/.ssh</title>
<path fill="none" stroke="black" d="M183.5,-32C183.5,-32 251.5,-32 251.5,-32 257.5,-32 263.5,-38 263.5,-44 263.5,-44 263.5,-257 263.5,-257 263.5,-263 257.5,-269 251.5,-269 251.5,-269 183.5,-269 183.5,-269 177.5,-269 171.5,-263 171.5,-257 171.5,-257 171.5,-44 171.5,-44 171.5,-38 177.5,-32 183.5,-32"/>
<text text-anchor="middle" x="217.5" y="-253.8" font-family="Times,serif" font-size="14.00">.ssh</text>
</g>
<!-- /home/ckhung/.gnupg/pubring.gpg -->
<g id="node1" class="node"><title>/home/ckhung/.gnupg/pubring.gpg</title>
<polygon fill="none" stroke="blue" points="253,-375 176,-375 176,-339 259,-339 259,-369 253,-375"/>
<polyline fill="none" stroke="blue" points="253,-375 253,-369 "/>
<polyline fill="none" stroke="blue" points="259,-369 253,-369 "/>
<text text-anchor="middle" x="217.5" y="-353.3" font-family="Times,serif" font-size="14.00" fill="blue">pubring.gpg</text>
</g>
<!-- /home/ckhung/work/config/.gnupg/pubring.gpg -->
<g id="node6" class="node"><title>/home/ckhung/work/config/.gnupg/pubring.gpg</title>
<polygon fill="none" stroke="blue" points="376,-313 299,-313 299,-277 382,-277 382,-307 376,-313"/>
<polyline fill="none" stroke="blue" points="376,-313 376,-307 "/>
<polyline fill="none" stroke="blue" points="382,-307 376,-307 "/>
<text text-anchor="middle" x="340.5" y="-291.3" font-family="Times,serif" font-size="14.00" fill="blue">pubring.gpg</text>
</g>
<!-- /home/ckhung/.gnupg/pubring.gpg&#45;&gt;/home/ckhung/work/config/.gnupg/pubring.gpg -->
<g id="edge1" class="edge"><title>/home/ckhung/.gnupg/pubring.gpg&#45;&gt;/home/ckhung/work/config/.gnupg/pubring.gpg</title>
<path fill="none" stroke="black" d="M253.823,-338.9C266.746,-332.279 281.533,-324.702 295.144,-317.728"/>
<polygon fill="black" stroke="black" points="297.038,-320.69 304.342,-313.015 293.846,-314.46 297.038,-320.69"/>
</g>
<!-- /home/ckhung/.gnupg/secring.gpg -->
<g id="node2" class="node"><title>/home/ckhung/.gnupg/secring.gpg</title>
<polygon fill="none" stroke="blue" points="251.5,-321 177.5,-321 177.5,-285 257.5,-285 257.5,-315 251.5,-321"/>
<polyline fill="none" stroke="blue" points="251.5,-321 251.5,-315 "/>
<polyline fill="none" stroke="blue" points="257.5,-315 251.5,-315 "/>
<text text-anchor="middle" x="217.5" y="-299.3" font-family="Times,serif" font-size="14.00" fill="blue">secring.gpg</text>
</g>
<!-- /home/ckhung/private/config/.ssh/id_rsa -->
<g id="node3" class="node"><title>/home/ckhung/private/config/.ssh/id_rsa</title>
<polygon fill="none" stroke="blue" points="117,-146 69,-146 69,-110 123,-110 123,-140 117,-146"/>
<polyline fill="none" stroke="blue" points="117,-146 117,-140 "/>
<polyline fill="none" stroke="blue" points="123,-140 117,-140 "/>
<text text-anchor="middle" x="96" y="-124.3" font-family="Times,serif" font-size="14.00" fill="blue">id_rsa</text>
</g>
<!-- /home/ckhung/.ssh/id_rsa -->
<g id="node11" class="node"><title>/home/ckhung/.ssh/id_rsa</title>
<polygon fill="none" stroke="blue" points="238.5,-130 190.5,-130 190.5,-94 244.5,-94 244.5,-124 238.5,-130"/>
<polyline fill="none" stroke="blue" points="238.5,-130 238.5,-124 "/>
<polyline fill="none" stroke="blue" points="244.5,-124 238.5,-124 "/>
<text text-anchor="middle" x="217.5" y="-108.3" font-family="Times,serif" font-size="14.00" fill="blue">id_rsa</text>
</g>
<!-- /home/ckhung/private/config/.ssh/id_rsa&#45;&gt;/home/ckhung/.ssh/id_rsa -->
<g id="edge5" class="edge"><title>/home/ckhung/private/config/.ssh/id_rsa&#45;&gt;/home/ckhung/.ssh/id_rsa</title>
<path fill="none" stroke="black" d="M133.303,-123.139C151.698,-120.676 173.616,-117.742 190.336,-115.503"/>
<polygon fill="black" stroke="black" points="132.672,-119.693 123.225,-124.489 133.601,-126.631 132.672,-119.693"/>
</g>
<!-- /home/ckhung/private/config/.ssh/id_dsa -->
<g id="node4" class="node"><title>/home/ckhung/private/config/.ssh/id_dsa</title>
<polygon fill="none" stroke="blue" points="117,-92 69,-92 69,-56 123,-56 123,-86 117,-92"/>
<polyline fill="none" stroke="blue" points="117,-92 117,-86 "/>
<polyline fill="none" stroke="blue" points="123,-86 117,-86 "/>
<text text-anchor="middle" x="96" y="-70.3" font-family="Times,serif" font-size="14.00" fill="blue">id_dsa</text>
</g>
<!-- /home/ckhung/.ssh/id_dsa -->
<g id="node12" class="node"><title>/home/ckhung/.ssh/id_dsa</title>
<polygon fill="none" stroke="blue" points="238.5,-76 190.5,-76 190.5,-40 244.5,-40 244.5,-70 238.5,-76"/>
<polyline fill="none" stroke="blue" points="238.5,-76 238.5,-70 "/>
<polyline fill="none" stroke="blue" points="244.5,-70 238.5,-70 "/>
<text text-anchor="middle" x="217.5" y="-54.3" font-family="Times,serif" font-size="14.00" fill="blue">id_dsa</text>
</g>
<!-- /home/ckhung/private/config/.ssh/id_dsa&#45;&gt;/home/ckhung/.ssh/id_dsa -->
<g id="edge3" class="edge"><title>/home/ckhung/private/config/.ssh/id_dsa&#45;&gt;/home/ckhung/.ssh/id_dsa</title>
<path fill="none" stroke="black" d="M133.303,-69.1393C151.698,-66.6765 173.616,-63.7418 190.336,-61.5031"/>
<polygon fill="black" stroke="black" points="132.672,-65.6925 123.225,-70.4887 133.601,-72.6306 132.672,-65.6925"/>
</g>
<!-- /home/ckhung/private/config/.gnupg/secring.gpg -->
<g id="node5" class="node"><title>/home/ckhung/private/config/.gnupg/secring.gpg</title>
<polygon fill="none" stroke="blue" points="130,-229 56,-229 56,-193 136,-193 136,-223 130,-229"/>
<polyline fill="none" stroke="blue" points="130,-229 130,-223 "/>
<polyline fill="none" stroke="blue" points="136,-223 130,-223 "/>
<text text-anchor="middle" x="96" y="-207.3" font-family="Times,serif" font-size="14.00" fill="blue">secring.gpg</text>
</g>
<!-- /home/ckhung/private/config/.gnupg/secring.gpg&#45;&gt;/home/ckhung/.gnupg/secring.gpg -->
<g id="edge2" class="edge"><title>/home/ckhung/private/config/.gnupg/secring.gpg&#45;&gt;/home/ckhung/.gnupg/secring.gpg</title>
<path fill="none" stroke="black" d="M123.796,-236.25C136.735,-247.954 152.736,-261.732 168,-273 173.496,-277.057 179.553,-281.107 185.469,-284.858"/>
<polygon fill="black" stroke="black" points="125.909,-233.44 116.169,-229.272 121.184,-238.605 125.909,-233.44"/>
</g>
<!-- /home/ckhung/work/config/.ssh/id_dsa.pub -->
<g id="node7" class="node"><title>/home/ckhung/work/config/.ssh/id_dsa.pub</title>
<polygon fill="none" stroke="blue" points="372.5,-230 302.5,-230 302.5,-194 378.5,-194 378.5,-224 372.5,-230"/>
<polyline fill="none" stroke="blue" points="372.5,-230 372.5,-224 "/>
<polyline fill="none" stroke="blue" points="378.5,-224 372.5,-224 "/>
<text text-anchor="middle" x="340.5" y="-208.3" font-family="Times,serif" font-size="14.00" fill="blue">id_dsa.pub</text>
</g>
<!-- /home/ckhung/work/config/.ssh/id_rsa.pub -->
<g id="node8" class="node"><title>/home/ckhung/work/config/.ssh/id_rsa.pub</title>
<polygon fill="none" stroke="blue" points="371.5,-176 303.5,-176 303.5,-140 377.5,-140 377.5,-170 371.5,-176"/>
<polyline fill="none" stroke="blue" points="371.5,-176 371.5,-170 "/>
<polyline fill="none" stroke="blue" points="377.5,-170 371.5,-170 "/>
<text text-anchor="middle" x="340.5" y="-154.3" font-family="Times,serif" font-size="14.00" fill="blue">id_rsa.pub</text>
</g>
<!-- /home/ckhung/.ssh/id_dsa.pub -->
<g id="node9" class="node"><title>/home/ckhung/.ssh/id_dsa.pub</title>
<polygon fill="none" stroke="blue" points="249.5,-238 179.5,-238 179.5,-202 255.5,-202 255.5,-232 249.5,-238"/>
<polyline fill="none" stroke="blue" points="249.5,-238 249.5,-232 "/>
<polyline fill="none" stroke="blue" points="255.5,-232 249.5,-232 "/>
<text text-anchor="middle" x="217.5" y="-216.3" font-family="Times,serif" font-size="14.00" fill="blue">id_dsa.pub</text>
</g>
<!-- /home/ckhung/.ssh/id_dsa.pub&#45;&gt;/home/ckhung/work/config/.ssh/id_dsa.pub -->
<g id="edge4" class="edge"><title>/home/ckhung/.ssh/id_dsa.pub&#45;&gt;/home/ckhung/work/config/.ssh/id_dsa.pub</title>
<path fill="none" stroke="black" d="M255.791,-217.534C267.177,-216.782 279.856,-215.943 291.831,-215.152"/>
<polygon fill="black" stroke="black" points="292.376,-218.623 302.124,-214.471 291.914,-211.639 292.376,-218.623"/>
</g>
<!-- /home/ckhung/.ssh/id_rsa.pub -->
<g id="node10" class="node"><title>/home/ckhung/.ssh/id_rsa.pub</title>
<polygon fill="none" stroke="blue" points="248.5,-184 180.5,-184 180.5,-148 254.5,-148 254.5,-178 248.5,-184"/>
<polyline fill="none" stroke="blue" points="248.5,-184 248.5,-178 "/>
<polyline fill="none" stroke="blue" points="254.5,-178 248.5,-178 "/>
<text text-anchor="middle" x="217.5" y="-162.3" font-family="Times,serif" font-size="14.00" fill="blue">id_rsa.pub</text>
</g>
<!-- /home/ckhung/.ssh/id_rsa.pub&#45;&gt;/home/ckhung/work/config/.ssh/id_rsa.pub -->
<g id="edge6" class="edge"><title>/home/ckhung/.ssh/id_rsa.pub&#45;&gt;/home/ckhung/work/config/.ssh/id_rsa.pub</title>
<path fill="none" stroke="black" d="M254.804,-163.6C266.769,-162.809 280.245,-161.918 292.869,-161.083"/>
<polygon fill="black" stroke="black" points="293.474,-164.551 303.222,-160.399 293.012,-157.566 293.474,-164.551"/>
</g>
</g>
</svg>
